<?xml version="1.0" encoding="utf-8"?>
<!-- Generator: Adobe Illustrator 24.3.0, SVG Export Plug-In . SVG Version: 6.00 Build 0)  -->
<svg version="1.1" id="Layer_1" xmlns="http://www.w3.org/2000/svg" xmlns:xlink="http://www.w3.org/1999/xlink" x="0px" y="0px"
	 viewBox="0 0 466.9 707.2" style="enable-background:new 0 0 466.9 707.2;" xml:space="preserve">
<style type="text/css">
	.st0{display:none;}
	.st1{display:inline;fill:#BD8A62;}
	.st2{display:inline;fill:#2E2119;}
	.st3{display:inline;fill:#E2D2CC;}
	.st4{display:inline;fill:#3D3D3D;}
	.st5{fill:#FFFFFF;}
	.st6{display:inline;}
</style>
<g id="Layer_10" class="st0">
</g>
<g id="Layer_14" class="st0">
	<path class="st1" d="M236.9,378.3l35.4-7.5l20.9-29.5l-31.7-12l5.6-30.2c-4.9-4.6-9.8-9.2-14.7-13.8c0.3-8.4,0.5-16.9,0.8-25.3
		c-1.9-1.5-3.7-3.1-5.6-4.6c0.3-3.3,0.6-6.6,0.9-10c-7.7-8.9-15.3-17.7-23-26.6c-4.9,0.9-9.8,1.7-14.6,2.6l-10.4-10.7l-13.1,3
		l-5.4,9l-17.5,4.3l-10.2,21c-3.2,16.2-6.4,32.4-9.7,48.7c6.9,24.3,13.7,48.6,20.6,72.9c-0.6,7.9-1.1,15.7-1.7,23.6
		c-11.1,25.4-22.2,50.7-33.3,76.1c-4,8-7.9,16-11.9,24c-2.9-7.4-5.9-14.8-8.8-22.2l-15.3-5.8L52.6,461l-27.1,8.2l8.7,75.6l3.2,41.3
		l7.9,38.2L57.8,657l11.1,10.2l20.6,7.6l20.2,1.2l25.1-6.9l21.8-15l18.8-30.9l11.9-32.2l14.9-64.2l9.7-53.3l11.5-56.6l11.2-37.1
		L236.9,378.3z"/>
	<path class="st1" d="M345.8,141.3c-11.8-20.7-37.6-46.7-58.6-41.2c-5.9,1.6-10.3,5.3-13.4,8.8l-3.3-3.4l-11.4,0.7l-6.5,0.9
		c0,0-13.6,1.4-29.2,10s-26.5,28.5-26.5,28.5c-5.4,38.6-6.5,51.4-6.5,51.4c-0.8,5.8-1.2,11.8-1.2,18c0.5-0.4,1.1-0.7,1.7-0.9
		c0.2-0.2,0.5-0.3,0.8-0.4c3-0.9,6.1-1,9.1-0.3c1.8,0.4,2.7,0.7,3.6,1.3c4,2.7,2.8,8.3,5.4,9c1.6,0.4,4-1,5.5-2
		c0.8-0.5,1.7-1.2,3.1-1.2c0.7,0,1.2,0.2,2.1,0.4c3.7,0.8,5.8,1.3,7.8,2.8c1.3,1,2,2,4.6,7.2c2.4,4.7,3.3,7.2,5,10.2
		c1.4,2.5,5.4,9.2,3.1,12c-0.3,0.4-1.3,0.7-3.1,1.3c-1.4,0.5-2.8,0.9-4.7,0.9c-0.9,0-1.7-0.2-2.2-0.3c-0.7-0.5-1.7-1.1-2.9-1
		c-0.6,0-0.6,0.2-1.3,0.2c-1.2,0-2.3-0.4-3.3-1.2c-0.4-0.3-1-0.6-1.3-1l0,0c-0.1,0.4-0.8,1.1-1.1,1.6c-0.5,0.8-0.9,1.6-1.3,2.4
		c-1.3,2.4-3,4.7-4,7.2c-0.1,0.3-0.2,0.8-0.3,1.2c0.5,0,1.4,0,1.5-0.1c0.9-0.3,1.8-0.9,2.7-1.4c3.7-1.9,7.7-2.7,11.8-3.4
		c2.7-0.5,5.3-1,8-1.1c2.8-0.1,6,0.3,8,2.3c2.7,2.6,2.5,7.1,2.5,10.6c0,2-0.2,4.1,0.3,6.1c0.4,1.6,1.1,3.1,1.3,4.8
		c0.5,2.9-0.2,5.5-2.1,7.7c-2,2.4-4.6,4.5-7,6.5c-2.3,1.9-5.6,3.7-8.6,2c-4.8-2.7-0.3-9.5,0.2-13.3c0.1-0.7,0.3-1.6,0.2-2.3
		c-0.7,0-2,0.9-2.8,1.4c-1.5,1-4.9,2.9-4.2,5c1.2,3.6,3.2,7,4.4,10.7c0.2,0.7,0.4,1.4,0.7,2.1c1.3-0.8,2.7-1.4,4.2-1.8
		c5.1-1.5,10.4-1.5,15.6-1.5c2.2,0,4.4,0,6.6,0.1c1.2,0.1,2.8,0,4,0.3c1.9,0.6,2.5,2.6,2.6,4.6c9.2,0.5,25.8,0,42.2-9.7
		c0,0,7.1-4.2,13.4-10.3C340.2,264.8,376.7,195.7,345.8,141.3z"/>
	<path class="st2" d="M396.4,252.3c-0.5-8.3-1-15.1-1.3-19.4c-2.4-24.5-4.9-49.1-7.3-73.6c-1.8-13.1-4.7-28-9.2-44
		c-4.6-16.5-10-31-15.4-43.4c-9.2-11.7-18.4-23.4-27.5-35.1c-10.2-7.1-20.5-14.1-30.7-21.2c-7.1-2.8-14.2-5.7-21.3-8.5
		c-10.8-3.8-20.1-4.9-26.5-5.1c-17.7-0.7-32.4,4-40.9,6.7c-2.3,0.7-4.2,1.4-5.5,1.9c-4.1-0.5-9.6-0.8-16.2-0.6
		c-5.7,0.2-23.5,1.4-43.3,10.8c-20.6,9.9-32.3,23.6-42.4,35.3c-3.9,4.6-18.2,21.8-29.5,48.6c-9.2,21.7-12.1,39.5-14.7,56.7
		c-2.5,16-3,27.8-4,51.5c-1.9,46.4,0.9,58.2-1.7,78.4c0,0-3.1,24.3-2.8,37.2c0,0.3,0,1.3,0,2.5c-0.3,4.8-1.8,6.2-2.8,11.6
		c-0.7,3.7-1.1,5.8-1.3,8.4c-0.2,2.3-0.5,4-0.9,5.4c-1,3.2-1.3,5.6-1.4,6.1c-0.7,2.8-0.1,7.9,5.9,17.9c1.7,2,3.3,4.1,5,6.1
		c9.3,2.3,18.6,4.6,28,7c8.8,3.3,24.6,7.8,44,5.3c9.2-1.2,16.8-3.6,22.7-6.1c2.9-0.6,5.8-1.2,8.7-1.8c2.3-9.2,2-16.4,1.1-21.3
		c-1-6.2-2.6-8.2-6.4-19.9c-2.7-8.3-1.6-6.6-5.5-19.7c-4.5-15.3-6.4-19.5-6.8-28.3c-0.2-4,0.1-7,0.3-8.9c0.8-9.7,2.8-12.1,6.5-26.4
		c3.1-12,2.9-14.6,6.3-19.4c4.1-5.8,8.8-8.2,9.8-8.7c5.2-2.5,10-2.6,12.4-2.4c2.5-3.2,4.9-6.4,7.4-9.6c-0.1-14.9,1.1-27.5,2.4-37.1
		c1.4-10.3,2.9-21.6,6.5-31.5c0.5-1.3,2-5.3,3.7-11.1c1.5-5,2.5-9.1,3.2-11.9c1.9-3,4.4-6.4,7.7-9.8c5.3-5.6,10.8-9.4,15.1-11.9
		c5-1.4,10-2.7,15-4.1c4-0.4,8-0.8,12.1-1.2c4.1,0.2,8.2,0.4,12.3,0.6c2.9-0.1,5.7-0.2,8.6-0.3c0.5-0.5,1.3-1.1,2.2-1.2
		c1-0.1,1.5,0.5,2.1,0.3c1-0.4,0.4-2.4,1.2-4.2c1-2.2,3.9-3.1,5.8-3.3c3.1-0.2,6.1,1.6,7.8,4.5c1.4,0.2,2.4,0.5,3.1,0.8
		c3.7,1.6,4.8,4.6,8.7,5.7c0.5,0.1,0.9,0.2,1.1,0.2c1.9,0.3,4.7,0.9,7.5,2.7c1.2,0.7,1.9,1.4,3.3,2.7c2.9,2.7,4,4.9,8.5,8.4
		c4.1,3.2,6.3,3.6,8.6,5.5c0.8,0.6,0.5,0.6,2.1,2.1c2.5,2.4,4.7,4.2,6.2,5.4c0.7,0.3,1.5,0.9,2,1.8c0.4,0.8,0.3,1.6,0.3,1.8
		c-0.3,2.7,1.1,6.1,1.9,13.3c0.2,2,0.4,4.9,0.4,8.4c-0.5,10.8-1.6,22.3-3.2,34.5c-2.1,15.3-3.5,22.8-4.7,27.7
		c-2.7,11.4-3,8.3-10.1,32c-3.6,12-5.1,17.9-10.3,25.2c-2.1,2.9-5,6.9-10.2,10.3c-6.6,4.3-12.9,5.1-20.1,6c-5.3,0.6-13.4,1-23.2-0.8
		c-1.8,3.6-1.6,9.8-3.4,13.5c-1.1,5.3-2.3,10.5-2.6,15.9c-0.1,1.4-0.1,2.8-0.1,4.1c7.7,0.7,15.2,4.5,22.4,7
		c4.3,1.5,8.8,2.4,13.2,3.4c0,0,8.2,2.1,15,3.7c14.3,3.4,26.1,5.6,29.7,6.3c10.6,2.2,26.1,7.6,46.5,22.3c8.1-8.9,7.8-21.7,7.8-30.7
		C394.5,294.7,399.6,306.5,396.4,252.3z"/>
	<path class="st2" d="M241.9,149.3c6,0.8,12.1,1.6,18.1,2.5c0.8,0.2,2.6,0.8,4.2,2.5c1.9,2,2.3,4.2,2.4,5c-2.2,1-4.5,2.1-6.7,3.1
		c-3.2,0.2-6.4,0.5-9.6,0.7c-5,0.5-10,0.9-15,1.4l-10.2,0.7c-4-0.1-8-0.3-12-0.4c-0.2-0.1-2.6-0.9-3.2-3.4c-0.4-1.4,0.1-2.6,0.2-3
		c7.8-2.4,15.6-4.8,23.4-7.3C236.2,150.5,239,149.9,241.9,149.3z"/>
	<path class="st3" d="M311.3,179.5c1.7-2,5.2-5,11.3-7.1c3.7-1.3,7-0.9,9.2-0.8c0,0,2.4-1,15.4,4c-1.1,7.4-2.2,10.5-3.2,17.9
		c-2.2-1-5.4,2.1-9.4,2.3c-1.8,0.1-2.7,0.4-4.6,0.6c-2.6,0.3-6.3,0.5-11.2-0.5c-1.2-0.7-4.1-2.6-6-6.2
		C310.3,185.1,311.1,180.8,311.3,179.5z"/>
	<path class="st3" d="M261.5,177.3c-2.9-2.1-7.6-4.8-13.6-5.3c-6.7-0.5-11.8,1.8-16.5,4c-5.3,2.5-9.2,5.4-11.7,7.6
		c-0.4,1.2-0.8,3.2-0.1,5.2c0.7,2.1,2.3,3.9,6.7,6.1c4.1,2.1,8.6,4.4,15.6,4.8c3.9,0.2,17.3,0.9,21.5-6.8
		C266.7,186.8,262.2,178.6,261.5,177.3z"/>
	<path class="st2" d="M327.9,171.6c0.6,0.1,4.9,0.7,7.7,7.1c1.8,4.1,3.6,7,3.3,8.2c-0.4,1.3-1.8,6.1-6.5,7.9
		c-3.8,1.5-7.2,0.1-8.1-0.3c-3.1-1.4-4.7-3.9-5.3-4.9c-2.4-4-3.4-10.7,0.5-15.4C322.4,170.8,326.6,171.7,327.9,171.6z"/>
	<path class="st2" d="M247.5,173.6c2.2-0.3,3.4,0.6,4.2,1c4.7,2.1,6.8,7,6.9,12.7c0,3.7-0.8,5.2-1.1,5.7c-0.9,1.5-2.4,2.7-4.8,3.7
		c-2.4,1-4.5,0.9-5.5,0.7c-5-0.6-7.9-4.2-8.2-4.7c-1.6-2.1-2-4.1-2.4-6.1c-0.6-2.9,0.4-5.4,1.9-8.3
		C240.4,174.7,242.3,173.3,247.5,173.6z"/>
	<path class="st2" d="M319.1,151.9c4.9-0.6,9.8-1.1,14.7-1.7c4.4,1.8,8.8,3.7,13.2,5.5l-0.6,10.2l-6.5-0.2c-2.1-0.4-4.2-0.8-6.3-1.1
		c-4.1-0.7-8.1-1.3-12-1.7c-3.1-0.4-6.2-0.8-9.2-1.2c-1-1.6-2.1-3.2-3.1-4.9c2.7-1.3,5.4-2.5,8.1-3.8
		C317.9,152.6,318.5,152.3,319.1,151.9z"/>
	<polygon class="st1" points="48.2,635.2 8.8,635.2 3,641.5 4.6,650.8 9.2,654 6.4,662.2 8.5,668.8 15.4,673.2 13.9,681.1 
		17.2,685.7 28.5,689.3 24.2,694 27.4,701.1 35.3,703.7 135.8,701.9 220.2,700 274.8,700.2 334.6,704.1 389.2,704.1 427.2,696 
		450.3,682 461.8,661 464.5,634.3 461.5,605.3 454.3,535.5 441.8,465.6 425.1,460.3 400.8,460.9 382.8,470.6 371.3,483.5 
		368.3,496.5 370.5,502.4 371.5,555 374,602.4 374.8,615.8 335.1,616.5 277.1,624 199.7,638 168.2,640.2 	"/>
	<path class="st4" d="M163.9,390.8c-9,2.3-18,4.6-26.9,7l-21.3,1.8l-52.7-12c-1.6-0.8-3.1-1.7-4.7-2.5c-4.9,6.5-9.9,12.9-14.8,19.4
		c-4.2,8.4-8.4,16.9-12.5,25.3c-3.5,12.4-7,24.9-10.5,37.3c-0.4,0.7-6.2,12.8,0.3,22.5c2.4,3.5,5.5,5.5,7.7,6.5
		c0.1-3.6,0.2-7.1,0.3-10.7c7.3-3.3,22.1-9,41.4-7.9c22.4,1.2,38.3,10.8,44.9,15.3c2.6-2.6,5.1-5.3,7.7-7.9
		C136.4,453.5,150.2,422.2,163.9,390.8z"/>
	<path class="st4" d="M168.2,636.9l16-33.9l10.4-39.6l32.2-157.8l9-29.1l4.5,1.7l30.1-6.7l13.5-13.9l8-16.9l23.3,5.8l39.1,7.8
		l47.8,29.1l24.5,26.3l9.9,17.2l4,14.4c1.7,6,3.5,12.1,5.2,18.1c1.5,6.5,3,12.9,4.4,19.4c-0.9,2.7-1.8,5.3-2.7,8
		c-0.8-2-1.7-4-2.5-5.9c-6.1-2.1-39.6-12.8-65,5.4c-3.6,2.6-7.5,6.1-11.2,10.9c1.3,24.4,2.5,48.9,3.8,73.3l2.5,45.3l-29-0.4
		l-62.2,7.3l-66.7,12.2l-41.4,5.2l-8.3-1.4L168.2,636.9z"/>
</g>
<g id="Layer_13">
	<g>
		<g>
			<path d="M345.8,154.4c1.3,0,2.6-1.1,2.5-2.5s-1.1-2.5-2.5-2.5c-1.3,0-2.6,1.1-2.5,2.5C343.3,153.2,344.4,154.4,345.8,154.4
				L345.8,154.4z"/>
		</g>
	</g>
	<g>
		<g>
			<path d="M389.9,377c0.3,0.1-0.8-0.3-0.3-0.1C389.7,377,389.8,377,389.9,377c0.2,0.1,0.4,0.2,0.6,0.4c0.5,0.3,1,0.6,1.4,0.9
				c0.5,0.4,1.1,0.7,1.6,1.1c0.1,0.1,0.3,0.2,0.4,0.3c0.2,0.1,0.7,0.6,0,0c0.3,0.3,0.6,0.5,0.9,0.7c2.8,2.2,5.4,4.6,8,7
				c5.2,4.9,10.3,9.9,14.8,15.4c0.2,0.2,0.4,0.5,0.6,0.7c0.1,0.1,0.2,0.2,0.3,0.3c0,0.1,0.1,0.1,0.1,0.2c0.3,0.3-0.4-0.5-0.2-0.2
				c0.3,0.4,0.6,0.8,0.9,1.2c1.4,2,2.6,4.2,3.9,6.3c3.1,5.2,6.5,10.2,9.3,15.6c0.3,0.6,0.7,1.3,1,2c0.1,0.3,0.3,0.6,0.4,0.8
				c0.1,0.2,0.2,0.4,0.3,0.6c0.2,0.5-0.1-0.3,0.1,0.3c0.6,1.4,1,2.8,1.5,4.2c0.9,2.8,1.5,5.8,2.1,8.7c1,4.8,2.4,9.4,3.9,14
				c1.6,4.7,3.2,9.4,4.4,14.2c0.2,1,0.5,2.1,0.6,3.1c0,0.3,0.1,0.5,0.1,0.8c0,0.2,0.1,1,0.1,0.3c0,0.6,0.1,1.2,0.2,1.8
				c0.1,1.1,0.1,2.3,0,3.5c0,0.1,0,0.2,0,0.4c-0.1,0.6,0.1-0.6,0,0c0,0.2-0.1,0.5-0.1,0.7c-0.1,0.3-0.1,0.6-0.2,0.8
				c-0.1,0.2-0.1,0.6-0.3,0.8c0-0.1,0.1-0.2,0.1-0.3c0,0.1-0.1,0.2-0.1,0.2c-0.1,0.1-0.1,0.2-0.2,0.4c-0.1,0.2-0.2,0.4-0.3,0.6
				l-0.1,0.1c-0.2,0.2-0.1,0.2,0.1-0.1l-0.2,0.3c-0.2,0.2-0.4,0.4-0.6,0.6c-1,0.9-1,2.7,0,3.5c1,1,2.5,0.9,3.5,0
				c4.1-3.7,3.8-9.7,3.1-14.6c-0.7-4.8-2.2-9.4-3.7-13.9c-1.6-4.8-3.3-9.5-4.5-14.4c-0.7-2.6-1.1-5.3-1.7-8c-0.7-3-1.5-5.9-2.7-8.7
				c-2.3-5.8-5.7-11-8.9-16.3c-1.7-2.7-3.3-5.5-5-8.2c-0.8-1.3-1.5-2.5-2.4-3.7c-4.3-5.6-9.3-10.7-14.4-15.5
				c-2.7-2.6-5.5-5.2-8.4-7.6c-2.2-1.9-4.5-3.8-7.1-5.2c-0.5-0.3-1.1-0.5-1.7-0.8c-1.2-0.5-2.8,0.5-3.1,1.7
				C387.8,375.4,388.6,376.5,389.9,377L389.9,377z"/>
		</g>
	</g>
	<g>
		<g>
			<path d="M444.3,481c-6.5-1.8-13.3-2.9-20-3.5c-6.8-0.6-13.7-0.7-20.5-0.2s-13.6,1.5-20.2,3.2c-6.1,1.6-12,3.8-17.5,6.8
				c-4.9,2.7-9.5,6.2-13,10.6c-0.5,0.6-1,1.3-1.5,1.9c-0.8,1.1-0.2,2.8,0.9,3.4c1.3,0.7,2.6,0.2,3.4-0.9c0.2-0.3,0.4-0.5,0.6-0.8
				c0,0-0.4,0.4-0.2,0.2c0-0.1,0.1-0.1,0.1-0.2c0.1-0.1,0.2-0.3,0.3-0.4c0.4-0.5,0.8-1,1.3-1.5c0.9-1,1.8-1.9,2.8-2.7
				c0.5-0.4,1-0.9,1.5-1.3c0.1-0.1,0.3-0.2,0.4-0.3c0.2-0.2-0.2,0.2-0.2,0.2c0.1-0.1,0.2-0.1,0.2-0.2c0.3-0.2,0.5-0.4,0.8-0.6
				c1.1-0.8,2.3-1.6,3.5-2.3c1.2-0.7,2.5-1.4,3.7-2.1c0.6-0.3,1.3-0.6,2-0.9c0.3-0.2,0.7-0.3,1-0.5c0.1-0.1,0.3-0.1,0.4-0.2
				c0.1,0,0.2-0.1,0.3-0.1c-0.1,0.1-0.5,0.2-0.2,0.1c2.8-1.2,5.7-2.2,8.6-3c3.1-0.9,6.2-1.6,9.3-2.1c0.8-0.1,1.6-0.3,2.4-0.4
				c0.4-0.1,0.8-0.1,1.2-0.2c0.2,0,0.3,0,0.5-0.1c0.1,0,0.2,0,0.3,0c-0.1,0-0.5,0.1-0.1,0c1.6-0.2,3.3-0.4,4.9-0.5
				c6.7-0.6,13.4-0.6,20.1-0.1c1.7,0.1,3.3,0.3,5,0.5c0.8,0.1,1.6,0.2,2.5,0.3c-0.1,0-0.6-0.1-0.1,0c0.1,0,0.2,0,0.3,0
				c0.2,0,0.4,0.1,0.6,0.1c0.4,0.1,0.8,0.1,1.2,0.2c3.2,0.5,6.4,1.1,9.5,1.9c0.8,0.2,1.5,0.4,2.3,0.6c1.3,0.3,2.8-0.4,3.1-1.7
				C446.3,482.7,445.6,481.3,444.3,481L444.3,481z"/>
		</g>
	</g>
	<g>
		<g>
			<path d="M211.2,13.8c15.9-10.2,35.5-9.9,53.6-7.1c4.5,0.7,9.1,1.6,13.6,2.4c4.7,0.8,9.2,2,13.6,3.6c8.8,3.2,16.9,8,24.6,13.4
				s15.5,11.2,22,17.9c6.7,6.9,12.4,14.7,17.3,23c4.7,8,8.6,16.4,12,25c1.7,4.3,3.3,8.6,4.9,13c1.8,5.1,2.9,10.3,4.2,15.5
				c3.4,13.8,6.8,27.8,8.9,41.9c0.1,0.7,0.2,1.4,0.3,2.1c0.1,0.5,0.1,0.9,0.2,1.4c0,0.2,0.1,0.4,0.1,0.7c0,0.1,0,0.3,0.1,0.4
				c0.1,0.4-0.1-0.6,0,0.1c0.4,3,0.8,5.9,1.1,8.9c2.7,23.3,4.3,46.7,5.1,70.2c0.7,17.6,0.9,35.2,0.8,52.8
				c-0.2,20.9-0.6,41.9-2.1,62.8c-0.3,4.1-1.9,7.9-4.6,11.1c-2.1,2.4,1.4,6,3.5,3.5c3.1-3.5,5.2-7.7,5.9-12.4
				c0.7-5.2,0.7-10.6,0.9-15.9c0.5-10.8,0.9-21.5,1.1-32.3c0.4-19,0.4-38.1-0.1-57.1c-0.7-26-2.2-52-5-77.9
				c-1.8-16.7-4.7-32.9-8.5-49.4c-1.3-5.5-2.6-11-4-16.4c-0.7-2.8-1.3-5.7-2.2-8.4c-0.7-2.3-1.6-4.5-2.5-6.8
				c-3.3-8.9-6.8-17.7-11.1-26.2c-4.3-8.5-9.3-16.7-15.2-24.2c-3.1-3.9-6.4-7.6-10-11.1c-3.5-3.4-7.5-6.4-11.4-9.4
				c-7.6-5.9-15.5-11.5-24-15.9c-4.3-2.2-8.8-4.2-13.5-5.7c-4.6-1.5-9.2-2.4-13.9-3.2c-9.5-1.6-18.9-3.4-28.5-3.8
				c-9.3-0.3-18.8,0.5-27.6,3.5c-4.4,1.5-8.5,3.4-12.4,5.9C205.9,11.2,208.5,15.5,211.2,13.8L211.2,13.8z"/>
		</g>
	</g>
	<g>
		<g>
			<path d="M277,104.6c0.7-0.1-0.3,0-0.5,0.1c-0.3,0-0.5,0.1-0.8,0.1c-0.6,0.1-1.3,0.1-1.9,0.2c-1.3,0.1-2.6,0.2-3.9,0.3
				c-2.8,0.1-5.6,0.2-8.4,0.1c-2.9-0.1-5.7-0.4-8.6-0.7c0.5,0.1,0,0-0.1,0c-0.2,0-0.4-0.1-0.5-0.1c-0.4-0.1-0.9-0.2-1.3-0.1
				c-0.6,0-1.2,0.1-1.8,0.1c-1.4,0.1-2.8,0.3-4.2,0.5c-10.1,1.4-19.6,5.8-27.6,12c-5.3,4.2-9.8,9.2-13.7,14.7
				c-1.2,1.7-1.6,3.9-2.2,5.8c-0.8,2.5-1.5,4.9-2.3,7.4c-1.7,5.5-3.3,11-4.9,16.4c-1.4,4.9-2.8,9.7-3.8,14.7c-1,5.2-1.7,10.4-2,15.7
				c-0.1,1-0.1,2-0.1,3c0,1.3,1.2,2.6,2.5,2.5c1.4-0.1,2.5-1.1,2.5-2.5c0.1-2.3,0.2-4.5,0.4-6.8c0.1-1.4,0.3-2.8,0.4-4.2
				c0-0.2,0-0.3,0.1-0.5c0,0.1-0.1,0.5,0,0.1c0-0.3,0.1-0.5,0.1-0.8c0.1-0.6,0.2-1.2,0.3-1.9c0.8-4.7,2-9.4,3.3-14
				c2.9-10.4,6.1-20.7,9.4-30.9c0.1-0.2,0.2-0.5,0.2-0.7l0.1-0.4c0.2,0.1-0.3,0.5-0.1,0.3s0.3-0.5,0.5-0.7c0.3-0.5,0.7-0.9,1-1.4
				c0.2-0.3,0.4-0.5,0.6-0.8c0.1-0.1,0.2-0.2,0.3-0.4s0.6-0.7,0,0c0.5-0.6,0.9-1.1,1.4-1.7c2.3-2.7,4.7-5.3,7.4-7.6
				c0.8-0.7,1.6-1.3,2.4-2c0.1-0.1,0.3-0.3-0.1,0.1c0.1-0.1,0.2-0.1,0.3-0.2c0.2-0.1,0.4-0.3,0.6-0.4c0.5-0.3,0.9-0.7,1.4-1
				c1.8-1.3,3.7-2.4,5.7-3.5c1-0.5,2.1-1.1,3.1-1.5c0.3-0.1,0.5-0.2,0.8-0.4c0.1,0,0.5-0.2,0.2-0.1c-0.4,0.2,0.3-0.1,0.3-0.1
				c0.6-0.2,1.1-0.5,1.7-0.7c2.6-0.9,5.2-1.7,7.9-2.3c0.6-0.1,1.3-0.3,2-0.4c0.3-0.1,0.6-0.1,1-0.2c0.1,0,0.3,0,0.4-0.1
				c0.1,0,0.2,0,0.3,0c-0.3,0-0.3,0-0.1,0c1.2-0.1,2.4-0.3,3.6-0.3c0.3,0,0.6,0,0.8,0c0.3,0,0.1,0.1-0.1-0.1l0.4,0.1
				c0.9,0.1,1.8,0.2,2.6,0.4c1.4,0.2,2.8,0.3,4.2,0.4c5.4,0.4,10.9,0.3,16.3-0.2c1.3-0.1,2.7-0.3,4-0.5s2.1-1.9,1.7-3.1
				C279.6,104.9,278.4,104.4,277,104.6L277,104.6z"/>
		</g>
	</g>
	<g>
		<g>
			<path d="M274.4,108.5c1.7,0.3,3.4,0.4,5.1,0c1.3-0.3,2.4-1,3.4-1.8c0.8-0.7,1.4-1.5,2-2.3c0.2-0.3,0,0.1-0.2,0.2
				c0.1-0.1,0.1-0.2,0.2-0.2c0.1-0.2,0.3-0.3,0.4-0.5c0.1-0.1,0.3-0.3,0.4-0.4s0.1-0.1,0.2-0.2c0.3-0.3-0.4,0.3-0.2,0.1
				c0.2-0.1,0.3-0.2,0.5-0.3c0.4-0.2-0.3,0.1-0.3,0.1c0.1,0,0.2-0.1,0.3-0.1c0.1,0,0.2,0,0.3-0.1c0.5-0.1-0.3,0-0.2,0
				c0.3,0,0.5,0,0.8,0c0.1,0,0.3,0,0.4,0c0.3,0-0.4-0.1-0.4,0c0.1,0,0.2,0,0.3,0c0.4,0.1,0.7,0.1,1.1,0.2c1,0.3,1.9,0.6,2.8,1
				c0.8,0.3,1.7,0.6,2.5,1l0.3,0.1c0,0-0.5-0.2-0.2-0.1c0.2,0.1,0.3,0.1,0.5,0.2c0.3,0.1,0.6,0.3,0.9,0.4c0.9,0.4,1.8,0.9,2.6,1.4
				c1.2,0.8,2.4,1.8,3.6,2.5c2.5,1.5,5.3,2.5,8,3.7c2.1,0.9,4,2,5.9,3.2c1.5,0.9,2.9,1.8,4.4,2.6c0.9,0.5,1.7,1.1,2.6,1.6
				c0.4,0.3,0.8,0.6,1.2,0.9c0.1,0.1,0.2,0.2,0.3,0.2c0,0-0.3-0.3-0.1-0.1c0.2,0.2,0.4,0.3,0.6,0.5c5.8,4.7,10,11,15.9,15.6
				c0.9,0.7,1.9,1.5,2.9,2.1c1.1,0.7,2.8,0.2,3.4-0.9c0.7-1.3,0.3-2.6-0.9-3.4c-0.4-0.3-0.8-0.6-1.3-0.9c-0.2-0.1-0.4-0.3-0.6-0.5
				s0.1,0,0.1,0.1c-0.1-0.1-0.3-0.2-0.4-0.3c-0.8-0.6-1.5-1.3-2.3-1.9c-1.4-1.3-2.7-2.6-4-4c-2.5-2.6-4.9-5.4-7.5-7.8
				c-1.6-1.4-3.2-2.7-4.9-3.9c-1.7-1.1-3.4-2.1-5.2-3.2c-2-1.2-4-2.4-6.1-3.5c-2.8-1.4-5.7-2.4-8.4-3.8c-1.4-0.8-2.7-1.7-4-2.6
				c-1.8-1.3-3.9-2.3-6-3.1c-1.7-0.7-3.5-1.4-5.3-2c-1.5-0.4-3-0.6-4.6-0.3c-1.2,0.2-2.2,0.9-3.1,1.7c-0.3,0.3-0.6,0.6-0.8,0.9
				c-0.2,0.3-0.5,0.6-0.7,0.9c-0.1,0.1-0.1,0.2-0.2,0.2l-0.1,0.1c-0.2,0.3,0.2-0.2,0.2-0.3c-0.3,0.3-0.5,0.7-0.8,1
				c-0.1,0.1-0.3,0.3-0.4,0.4s-0.2,0.2-0.3,0.2c-0.2,0.2,0.6-0.4,0.1-0.1c-0.2,0.1-0.3,0.2-0.5,0.3c-0.1,0.1-0.2,0.1-0.3,0.2
				c0.6-0.4,0.4-0.2,0.1-0.1c-0.2,0.1-0.5,0.1-0.7,0.2c-0.1,0-0.2,0-0.2,0s0.6-0.1,0.4,0c-0.2,0-0.3,0-0.5,0c-0.3,0-0.7,0-1,0
				c-0.2,0-0.4,0-0.5,0h-0.3c0,0,0.7,0.1,0.2,0c-1.3-0.2-2.8,0.3-3.1,1.7C272.3,106.6,273,108.3,274.4,108.5L274.4,108.5z"/>
		</g>
	</g>
	<g>
		<g>
			<path d="M200.2,13.5c1.4-0.1,2.7-0.1,4.1,0c0.6,0,1.2,0.2,1.8,0.2c-0.6,0-0.3,0,0,0c0.1,0,0.2,0,0.3,0c0.3,0,0.6,0.1,0.9,0.2
				c1,0.2,2,0.5,2.9,0.9c0.1,0,0.2,0.1,0.4,0.1c0.5,0.2-0.6-0.3-0.1-0.1c0.2,0.1,0.4,0.2,0.6,0.3c0.4,0.2,0.8,0.4,1.2,0.6
				c0.4,0.2,0.7,0.5,1.1,0.7c0.2,0.1,0.3,0.2,0.5,0.3c0.4,0.3-0.5-0.4-0.1-0.1c0.1,0.1,0.2,0.1,0.3,0.2c0.6,0.5,1.2,1.1,1.7,1.6
				c0.3,0.3,0.5,0.6,0.8,0.9c0.1,0.1,0.2,0.3,0.3,0.4c0.3,0.3-0.4-0.5-0.1-0.2c0.1,0.1,0.1,0.2,0.2,0.2c0.4,0.6,0.9,1.2,1.3,1.8
				c1.5,2.3,2.7,4.8,4.6,6.8c1.2,1.3,2.9,2.1,4.4,3.1c0.5,0.3,1,0.7,1.5,1c0.1,0.1,0.3,0.2,0.4,0.3c0,0-0.5-0.4-0.2-0.2
				c0.1,0.1,0.2,0.2,0.3,0.2c0.4,0.3,0.9,0.7,1.3,1.1c2.4,2.1,4.4,4.6,6.4,7.2c0.5,0.6-0.3-0.4,0.2,0.3c0.1,0.2,0.3,0.4,0.4,0.6
				c0.2,0.3,0.5,0.6,0.7,0.9c0.5,0.7,1,1.3,1.5,2c0.9,1.3,1.9,2.5,2.8,3.8c2.6,3.6,5.1,7.2,7.5,10.9c0.4,0.6,0.8,1.1,1.1,1.8
				c1.4,2.9,2.8,5.8,4.2,8.7c2.7,5.7,5.4,11.3,8.2,16.9c2.3,4.5,4.7,9.1,7.6,13.3c1.9,2.8,4.3,6.2,7.6,7.4c0.2,0.1,0.4,0.1,0.7,0.2
				c0.2,0,0.6,0.1,0.9,0.1c0.1,0,0.1,0,0.2,0c-0.7,0-1.7-0.6-2-1.2c-0.1-0.4-0.2-0.8-0.3-1.3c-0.1-0.6,0.4-1.4,0.6-1.6
				c-0.2,0.2,0.6-0.4,0.3-0.2c-0.2,0.1-0.3,0.2-0.5,0.3c-0.1,0.1-0.2,0.1-0.3,0.1c0.1-0.1,0.6-0.2,0.2-0.1c-0.2,0.1-0.5,0.2-0.7,0.2
				c-0.1,0-0.2,0.1-0.3,0.1c-0.5,0.1,0.6-0.1,0.3,0h-0.1c-0.4,0,0.5,0.1,0.5,0.1h-0.1c0.3,0.1,0.5,0.2,0.7,0.4
				c0.5,0.4,0.8,1,0.8,1.7c0-0.1-0.2,0.8,0,0.3c0-0.1-0.3,0.5-0.2,0.4c0.1,0,0.1-0.2,0.1-0.2c0.1-0.2,0.2-0.3,0.4-0.5
				c0.8-1,0.2-2.8-0.9-3.4c-1.3-0.7-2.6-0.2-3.4,0.9c-0.9,1.1-1.4,2.7-0.6,4c0.8,1.4,2.4,1.6,3.9,1.3c1.6-0.3,3.9-1.2,4.4-3
				c0.4-1.4-0.5-2.8-1.8-3.1c-0.3-0.1-0.6-0.1-0.9-0.1c-0.6,0,0.7,0.2,0.2,0c-0.1,0-0.2-0.1-0.4-0.1c-0.6-0.2,0.6,0.3,0.2,0.1
				c-0.3-0.2-0.6-0.3-0.9-0.5c-0.1,0-0.1-0.1-0.2-0.1c-0.3-0.2,0.5,0.4,0.2,0.2c-0.1-0.1-0.3-0.2-0.4-0.4c-0.3-0.3-0.6-0.5-0.9-0.8
				s-0.6-0.7-0.9-1c-0.2-0.2-0.3-0.4-0.5-0.6c-0.1-0.1-0.1-0.2-0.2-0.3c0.3,0.3,0.3,0.4,0.2,0.2c-0.1-0.1-0.1-0.1-0.2-0.2
				c-3.3-4.4-5.9-9.4-8.4-14.3c-3.2-6.3-6.2-12.7-9.3-19c-0.8-1.7-1.6-3.3-2.4-5c-0.4-0.9-0.8-1.8-1.3-2.7c-0.6-1-1.3-2-1.9-3
				c-3.2-4.9-6.6-9.7-10.1-14.3c-2.4-3.2-4.8-6.5-7.6-9.4c-1.6-1.6-3.3-3-5.2-4.3c-1-0.7-2.2-1.3-3.2-1.9c-0.1-0.1-0.2-0.2-0.4-0.2
				c-0.5-0.3,0.5,0.4,0.1,0.1c-0.2-0.2-0.5-0.4-0.7-0.6s-0.4-0.5-0.6-0.7c-0.4-0.5,0.3,0.4,0.1,0.1c-0.1-0.1-0.2-0.3-0.3-0.4
				c-0.4-0.6-0.8-1.2-1.2-1.8c-1.8-3-3.6-6-6.2-8.4c-3.7-3.4-8.4-5-13.4-5.3c-1.5-0.1-3-0.1-4.4,0c-1.3,0.1-2.6,1.1-2.5,2.5
				C197.8,12.3,198.8,13.6,200.2,13.5L200.2,13.5z"/>
		</g>
	</g>
	<g>
		<g>
			<path d="M210.9,163c0.1-0.2,0.4-0.5,0.1-0.1c0.2-0.2,0.3-0.4,0.5-0.5c0.1-0.1,0.3-0.3,0.4-0.4c0.1-0.1,0.1-0.1,0.2-0.2
				c0.4-0.3-0.2,0.1,0,0c0.7-0.5,1.4-0.9,2.2-1.3c0.9-0.5,1.8-0.9,2.7-1.3c0.1-0.1,0.6-0.3,0.3-0.1c0.2-0.1,0.4-0.2,0.6-0.3
				c0.5-0.2,1-0.4,1.5-0.6c3.9-1.4,7.9-2.4,11.9-3.3c2.1-0.4,4.1-0.9,6.2-1.2c0.5-0.1,1-0.2,1.6-0.3c0.2,0,0.5-0.1,0.7-0.1
				c0.1,0,0.2,0,0.4-0.1c0,0,0.5-0.1,0.3,0c-0.3,0,0.2,0,0.3,0s0.2,0,0.4,0s0.5-0.1,0.7-0.1c0.6-0.1,1.1-0.1,1.7-0.2
				c2.1-0.2,4.2-0.2,6.3-0.1c0.9,0,1.8,0.1,2.7,0.1c0.4,0,0.8,0.1,1.3,0.1l0.6,0.1c0,0-0.5-0.1-0.1,0c0.1,0,0.3,0,0.4,0.1
				c1.7,0.3,3.3,0.8,4.9,1.3c0.3,0.1-0.1,0-0.1-0.1c0.1,0,0.2,0.1,0.3,0.1c0.2,0.1,0.4,0.2,0.7,0.3c0.4,0.2,0.8,0.4,1.2,0.6
				c0.4,0.2,0.7,0.4,1.1,0.6l0.5,0.3c0,0-0.5-0.4-0.1,0c0.1,0.1,0.2,0.2,0.3,0.2l0.4,0.4c0,0-0.2-0.4-0.1-0.1
				c0.1,0.1,0.1,0.2,0.2,0.3c0.2,0.2-0.1-0.2-0.1-0.2s0.1,0.2,0.1,0.3l0.1,0.3c-0.1,0,0-0.5,0-0.1c0,0.1,0,0.4,0,0.4s0.1-0.5,0-0.2
				c0,0.1-0.2,0.6-0.1,0.3s-0.1,0.2-0.2,0.3c0,0.1-0.3,0.4-0.1,0.1c0.2-0.3-0.1,0.1-0.1,0.1c-0.1,0.1-0.5,0.4-0.2,0.2
				s-0.2,0.1-0.3,0.2c-0.3,0.2-0.7,0.4-1,0.6c-0.4,0.2-0.7,0.4-1.1,0.6c-0.2,0.1-0.4,0.2-0.5,0.2c0.1,0,0.5-0.2,0.1,0
				c-0.1,0-0.2,0.1-0.4,0.1c-0.2,0.1-0.3,0.1-0.5,0.2c-0.1,0-0.2,0-0.2,0.1c-0.3,0.1,0.2,0,0.3,0c-0.5-0.1-1.2,0.1-1.6,0.1
				c-1.1,0.1-2.2,0.1-3.3,0.2c-2.1,0.1-4.2,0.2-6.3,0.3c-4.1,0.2-8.2,0.4-12.3,0.6c-4.1,0.2-8.3,0.4-12.4,0.7
				c-2.2,0.1-4.3,0.2-6.5,0.4c-0.9,0.1-1.8,0.1-2.8,0c-0.3,0,0.1,0,0.1,0c-0.1,0-0.2,0-0.3-0.1c-0.2-0.1-0.5-0.1-0.7-0.2
				c0,0-0.4-0.1-0.1,0c0.3,0.1-0.1,0-0.1-0.1c-0.1,0-0.2-0.1-0.2-0.1c-0.3-0.1,0.4,0.4,0,0L213,162c0,0,0.2,0.4,0.1,0.1l-0.1-0.2
				c0,0,0.1,0.5,0.1,0.2c0-0.1,0-0.4,0-0.1c0,0.4,0,0,0,0c0,0.1-0.1,0.6,0,0.1c0.3-1.3-0.4-2.8-1.7-3.1s-2.7,0.4-3.1,1.7
				c-0.7,2.6,0.9,5.2,3.3,6.3c2.2,1,4.5,0.9,6.9,0.7c4.6-0.3,9.2-0.5,13.7-0.8c9-0.5,18.1-0.9,27.1-1.4c2.2-0.1,4.1-0.9,5.9-2
				c2-1.1,3.7-2.8,4.1-5.2c0.7-5.1-4.7-7.6-8.7-9c-3.7-1.3-7.8-1.6-11.8-1.6c-4.8,0-9.6,0.7-14.3,1.5c-4.4,0.8-8.7,1.8-13,3.1
				c-2.3,0.7-4.5,1.6-6.7,2.5c-2,0.9-3.8,1.8-5.5,3.2c-0.9,0.7-1.6,1.5-2.2,2.5c-0.7,1.1-0.2,2.8,0.9,3.4
				C208.7,164.5,210.1,164.1,210.9,163L210.9,163z"/>
		</g>
	</g>
	<g>
		<g>
			<path d="M219,188.4c0.2-0.3,0.4-0.6,0.6-0.9c0.1-0.2,0.2-0.3,0.4-0.5s-0.1,0.1-0.1,0.2c0.1,0,0.2-0.2,0.2-0.3
				c0.5-0.6,1-1.2,1.6-1.7c0.3-0.2,0.5-0.5,0.8-0.7c0.1-0.1,0.3-0.2,0.4-0.3c0.1-0.1,0.1-0.1,0.2-0.2c0.3-0.2-0.4,0.3-0.1,0.1
				c0.6-0.5,1.3-0.9,2-1.4c1.4-0.8,2.8-1.6,4.3-2.2c0.2-0.1,0.4-0.2,0.6-0.3c0.3-0.1-0.1,0.1-0.2,0.1c0.1,0,0.2-0.1,0.3-0.1
				c0.4-0.2,0.8-0.3,1.2-0.5c0.8-0.3,1.6-0.6,2.4-0.8c3.5-1.2,7.1-2.2,10.7-2.8c0.2,0,0.5-0.1,0.7-0.1c0.1,0,0.2,0,0.3-0.1
				c0,0-0.4,0-0.1,0c0.5-0.1,1.1-0.1,1.6-0.2c1-0.1,1.9-0.1,2.9,0c0.2,0,0.5,0,0.7,0.1c0.1,0,0.5,0.1,0,0c0.1,0,0.2,0,0.3,0.1
				c0.5,0.1,1,0.2,1.5,0.3c0.4,0.1,0.9,0.3,1.3,0.4c0.2,0.1,0.5,0.2,0.7,0.3c0.3,0.1,0,0-0.1,0c0.1,0.1,0.3,0.1,0.4,0.2
				c1,0.4,1.9,1,2.8,1.5c0.4,0.2,0.8,0.5,1.2,0.8c0.2,0.1,0.4,0.3,0.6,0.4c0.1,0.1,0.2,0.1,0.2,0.2c0.3,0.2-0.3-0.3,0,0
				c0.7,0.6,1.5,1.3,2.1,2c0.2,0.2,0.3,0.4,0.4,0.5c0.2,0.2-0.1-0.1-0.1-0.1c0.1,0.1,0.2,0.3,0.3,0.4c0.3,0.4,0.5,0.8,0.8,1.3
				c0.6,1.2,2.3,1.6,3.4,0.9c1.2-0.8,1.6-2.2,0.9-3.4c-1.9-3.5-5.2-6.1-8.6-7.9c-1.9-1.1-4-1.9-6.1-2.4c-2.2-0.4-4.4-0.5-6.7-0.3
				c-4.2,0.4-8.3,1.5-12.2,2.8c-3.5,1.1-6.9,2.4-10.1,4.2c-3.5,2-6.6,4.7-8.7,8.1c-0.7,1.1-0.3,2.8,0.9,3.4
				C216.8,190,218.2,189.6,219,188.4L219,188.4z"/>
		</g>
	</g>
	<g>
		<g>
			<path d="M249.3,177.1c0.7,0.1-0.5-0.2,0.2,0c0.1,0,0.3,0.1,0.4,0.1c0.1,0,0.3,0.1,0.4,0.1c0.5,0.2-0.1,0.1-0.1,0
				c0,0.1,1,0.6,1.1,0.6c0.1,0.1,0.9,0.5,0.3,0.2c0.2,0.1,0.5,0.4,0.7,0.6c0.4,0.4,0.9,0.9,1.2,1.3c0.2,0.2,0.3,0.1,0,0
				c0.1,0,0.2,0.2,0.2,0.3c0.2,0.2,0.3,0.4,0.5,0.7c0.3,0.4,0.5,0.9,0.8,1.4c0.1,0.2,0.2,0.4,0.3,0.6c0.1,0.2,0.3,0.9,0.1,0.1
				c0.1,0.4,0.3,0.8,0.4,1.2c0.2,0.5,0.3,1,0.4,1.5c0,0.1,0,0.2,0.1,0.3c0,0.1,0,0.2,0,0.2c0,0.2,0.1,0.3,0.1,0.5c0,0.1,0,0.2,0,0.3
				c0-0.3,0-0.3,0,0c0,0.7,0.1,1.3,0,2c0,0.1-0.1,0.6,0,0.1c0,0.1,0,0.3-0.1,0.4c-0.1,0.4-0.2,0.8-0.4,1.2c-0.2,0.4,0,0.1,0,0
				c-0.1,0.2-0.2,0.4-0.3,0.6c-0.1,0.2-0.3,0.4-0.4,0.6c-0.1,0.1-0.2,0.3-0.3,0.3c0.4-0.4,0.2-0.2,0.1-0.1c-0.2,0.3-0.5,0.5-0.7,0.8
				c-0.2,0.2-0.4,0.4-0.7,0.6c0.1,0,0.4-0.3,0.1-0.1c-0.1,0.1-0.3,0.2-0.4,0.3c-0.2,0.2-0.5,0.3-0.7,0.4c-0.2,0.1-0.3,0.2-0.5,0.3
				c-0.5,0.2,0.4-0.1-0.1,0.1c-0.6,0.2-1.3,0.4-1.9,0.5c-0.1,0-0.5,0.1,0,0c-0.2,0-0.4,0-0.5,0c-0.4,0-0.8,0-1.2,0
				c-0.2,0-0.3,0-0.5,0s-0.6,0-0.1,0c-0.3,0-0.7-0.1-1-0.2c-0.3-0.1-0.6-0.2-0.9-0.2c-0.2-0.1-0.3-0.1-0.5-0.2
				c-0.6-0.2,0.5,0.2-0.1,0c-0.6-0.3-1.1-0.6-1.7-0.9c-0.1,0-0.2-0.1-0.3-0.2c0.3,0.4,0.1,0.1-0.1-0.1c-0.2-0.2-0.4-0.4-0.6-0.6
				c-0.1-0.1-0.3-0.3-0.4-0.4c-0.1-0.1-0.3-0.4,0,0c-0.2-0.3-0.4-0.6-0.6-0.9c-0.2-0.3-0.3-0.6-0.5-0.9c-0.1-0.1-0.1-0.2-0.2-0.4
				c-0.2-0.5,0.1,0.4-0.1-0.1c-0.4-1.3-0.8-2.5-1-3.9c0-0.1,0-0.5-0.1-0.6c0.1,0.1,0.1,0.6,0,0.3c0-0.2,0-0.5-0.1-0.7
				c0-0.5,0-1.1,0-1.6c0-0.2,0.2-0.5,0,0.1c0-0.1,0-0.2,0.1-0.3c0.1-0.3,0.1-0.6,0.2-0.9c0-0.1,0.1-0.3,0.1-0.4v-0.1
				c0.1-0.3,0.1-0.2,0,0.1c0-0.3,0.4-0.7,0.5-1c0.1-0.1,0.2-0.3,0.3-0.4c0-0.1,0.5-0.6,0.1-0.2c0.1-0.1,0.2-0.2,0.3-0.4
				c0.1-0.1,0.2-0.2,0.3-0.3s0.2-0.2,0.3-0.3l0.1-0.1c0.3-0.3-0.2,0.1-0.2,0.2c0.3-0.2,0.7-0.5,1-0.7c0.4-0.3,0.9-0.5,1.4-0.7
				c0.1,0,0.2-0.1,0.3-0.1c0.5-0.2-0.5,0.2,0,0c0.3-0.1,0.6-0.2,1-0.3c0.7-0.2,1.3-0.4,2-0.5c0.1,0,0.7-0.2,0.1,0
				c0.2-0.1,0.4,0,0.6-0.1C248.7,177.1,249,177.1,249.3,177.1c1.3,0.1,2.6-1.2,2.5-2.5c-0.1-1.4-1.1-2.4-2.5-2.5
				c-1.6-0.1-3.2,0.2-4.8,0.7c-1.3,0.4-2.5,0.9-3.6,1.5s-2.3,1.4-3.2,2.4c-2.1,2.4-3.1,5.5-2.9,8.7c0.2,3.1,1,6.5,2.8,9
				c4,5.7,12.2,7.5,18.1,3.7c2.8-1.8,5-4.6,5.5-8c0.3-2.1,0.1-4.3-0.4-6.4c-1.4-5.4-5.6-11.2-11.5-11.7c-1.3-0.1-2.6,1.2-2.5,2.5
				C246.9,176,247.9,177,249.3,177.1z"/>
		</g>
	</g>
	<g>
		<g>
			<path d="M312.7,181.9c0.3,0.4,0.3,1.1,0.2,1.5c0.1-0.6-0.2,0.4-0.1,0.2c0.1-0.1,0.2-0.3,0.2-0.4c0-0.1,0.1-0.1,0.1-0.2
				c0-0.1,0.1-0.1,0.1-0.2c0.1-0.2,0.1-0.1-0.2,0.2c0.3-0.2,0.6-0.7,0.8-1c0.3-0.4,0.7-0.7,1-1.1c0.6-0.6,1.3-1.2,1.9-1.9
				c0.2-0.2,0.4-0.4,0.6-0.6c0.2-0.2,0.4-0.4,0.6-0.5c-0.4,0.3-0.1,0.1,0.1,0s0.4-0.3,0.6-0.4c0.3-0.2,0.6-0.3,0.9-0.5
				c0.1,0,0.7-0.3,0.2-0.1c0.1-0.1,0.3-0.1,0.4-0.2c0.8-0.3,1.5-0.6,2.3-0.8s1.6-0.4,2.4-0.6c0.4-0.1,0.7-0.2,1.1-0.2
				c0.1,0,0.3-0.1,0.4-0.1s1-0.2,0.5-0.1c1.6-0.2,3.2-0.3,4.8-0.3c0.8,0,1.6,0.1,2.5,0.1c0.2,0,0.4,0,0.6,0.1c0,0,0.7,0.1,0.4,0
				c-0.4,0,0.4,0.1,0.4,0.1c0.3,0,0.5,0.1,0.8,0.1c3.6,0.6,7.1,1.7,10.5,2.8c1.2,0.4,2.8-0.5,3.1-1.7c0.3-1.4-0.4-2.6-1.7-3.1
				c-6.9-2.2-13.9-4.1-21.2-3.2c-3.6,0.5-7.4,1.3-10.6,3.1c-1.9,1-3.5,2.8-5,4.3s-4.6,4.5-3,6.9c0.7,1.1,2.2,1.7,3.4,0.9
				C312.8,184.7,313.5,183.1,312.7,181.9L312.7,181.9z"/>
		</g>
	</g>
	<g>
		<g>
			<path d="M326.8,174.5c1.1,0.5,2.1,1,3.1,1.7c0.2,0.1,0.4,0.3,0.6,0.4c0,0,0.5,0.4,0.2,0.1c-0.3-0.2,0,0,0.1,0.1
				c0.4,0.4,0.8,0.7,1.2,1.1c0.3,0.3,0.6,0.7,1,1.1c0.2,0.3-0.3-0.4-0.1-0.1c0.1,0.1,0.2,0.2,0.2,0.3c0.2,0.2,0.3,0.5,0.4,0.7
				c0.2,0.4,0.4,0.7,0.6,1.1c0,0.1,0.2,0.5,0.1,0.1s0,0,0,0.1c0.1,0.2,0.2,0.5,0.3,0.7c0.1,0.4,0.2,0.9,0.3,1.3c0,0.1,0,0.3,0.1,0.3
				c-0.2-0.4,0-0.5,0-0.1c0,0.3,0,0.5,0.1,0.8c0,0.5,0,0.9,0,1.4c0,0-0.1,0.3,0,0.3c-0.1-0.1,0.1-0.5,0-0.2s-0.1,0.5-0.2,0.8
				c-0.1,0.5-0.3,1-0.4,1.5c0,0.1-0.1,0.2-0.1,0.3c-0.2,0.5,0-0.1,0-0.1c-0.1,0-0.3,0.7-0.4,0.8c-0.1,0.2-0.3,0.4-0.4,0.6
				c0,0-0.4,0.5-0.1,0.2c0.2-0.3-0.1,0.1-0.1,0.1c-0.2,0.2-0.4,0.4-0.6,0.6c-0.1,0.1-0.2,0.2-0.3,0.3c0.4-0.4-0.1,0-0.2,0.1
				c-0.2,0.1-0.4,0.2-0.6,0.4c-0.1,0.1-0.2,0.1-0.3,0.2c-0.5,0.3,0.4-0.1,0,0c-0.5,0.2-1.1,0.4-1.6,0.5c-0.1,0-0.3,0-0.4,0.1
				c0.1,0,0.6-0.1,0.1,0c-0.2,0-0.5,0-0.7,0c-0.6,0-1.2,0-1.7-0.1c-0.4,0,0.6,0.1,0,0c-0.1,0-0.2,0-0.4-0.1c-0.2,0-0.5-0.1-0.7-0.2
				c-0.3-0.1-0.5-0.1-0.8-0.2c-0.1,0-0.2-0.1-0.3-0.1c-0.1,0-0.6-0.3-0.3-0.1c0.3,0.2,0,0-0.1,0c-0.1-0.1-0.3-0.1-0.4-0.2
				c-0.2-0.1-0.4-0.2-0.6-0.3c-0.1-0.1-0.4-0.2-0.5-0.4c0.1,0.1,0.1,0.1,0.2,0.2c-0.1-0.1-0.2-0.1-0.2-0.2c-0.1-0.1-0.3-0.2-0.4-0.3
				c-0.2-0.2-0.4-0.4-0.6-0.6c-0.1-0.1-0.4-0.4,0,0c-0.1-0.1-0.2-0.2-0.2-0.3c-0.3-0.5-0.6-1-0.9-1.5c0-0.1-0.1-0.2-0.2-0.3
				c0.1,0.5,0.1,0.2,0,0c-0.1-0.3-0.2-0.5-0.3-0.8c-0.2-0.5-0.3-1.1-0.4-1.6c-0.1-0.2-0.1-0.5-0.1-0.7c0-0.1,0-0.2-0.1-0.4
				c0,0-0.1-0.6,0-0.2c0.1,0.4,0,0,0-0.1s0-0.3,0-0.5c0-0.3-0.1-0.6-0.1-0.9c0-0.5,0-1,0-1.5c0-0.2,0-0.3,0-0.5c0-0.4-0.1,0.5,0,0.1
				c0.1-0.3,0.1-0.6,0.2-0.9c0-0.1,0.1-0.3,0.1-0.4c0.1-0.4-0.1,0.3,0,0c0.2-0.3,0.3-0.6,0.5-0.8c0.1-0.1,0.3-0.5,0-0.1
				c0.1-0.1,0.2-0.3,0.3-0.4c0.2-0.2,0.4-0.4,0.6-0.6c0.2-0.2,0.2-0.4,0,0c0.1-0.1,0.3-0.2,0.4-0.2c0.2-0.2,0.5-0.3,0.7-0.5
				c0.3-0.1,0.5-0.3,0.8-0.4c0.3-0.2-0.6,0.2,0,0c0.1-0.1,0.3-0.1,0.4-0.2c0.6-0.2,1.2-0.4,1.8-0.5c0.3-0.1,0.6-0.1,0.9-0.2
				c0.2,0,0.3-0.1,0.5-0.1c0.5-0.1-0.3,0,0,0c1.3-0.1,2.6-0.2,4-0.2c1.3,0,2.6-1.2,2.5-2.5c-0.1-1.4-1.1-2.5-2.5-2.5
				c-5.3-0.2-12,1-15,6c-1.4,2.5-1.6,5.4-1.2,8.1c0.4,2.8,1,5.6,2.7,7.9c1.7,2.4,4.1,4,6.9,4.8c2.6,0.7,5.6,0.8,8.1-0.2
				c3.1-1.1,5.2-3.4,6.4-6.3c0.9-2.2,1.3-4.6,1-7c-0.8-6-5.1-10.6-10.5-12.9c-1.2-0.5-2.7-0.4-3.4,0.9
				C325.3,172.2,325.5,174,326.8,174.5L326.8,174.5z"/>
		</g>
	</g>
	<g>
		<g>
			<path d="M223.2,196c3.5,2,7.4,3.7,11.3,4.6c4.3,1,8.6,1.3,13,0.8c2.7-0.3,5.3-0.7,8-1.1c1.3-0.2,2.1-1.9,1.7-3.1
				c-0.5-1.4-1.7-2-3.1-1.7c-1,0.2-2.1,0.3-3.1,0.5c-0.3,0-0.6,0.1-0.8,0.1c-0.1,0-0.2,0-0.4,0c0,0,0.4,0,0.1,0
				c-0.6,0.1-1.1,0.1-1.7,0.2c-2.1,0.2-4.3,0.3-6.4,0.3c-1,0-1.9-0.1-2.9-0.2c0.5,0.1-0.2,0-0.3-0.1c-0.2,0-0.4-0.1-0.7-0.1
				c-0.5-0.1-1-0.2-1.5-0.3c-1.9-0.4-3.7-1-5.5-1.7c-0.2-0.1-0.5-0.2-0.7-0.3c-0.3-0.1,0.1,0,0.1,0c-0.2-0.1-0.3-0.1-0.5-0.2
				c-0.5-0.2-0.9-0.4-1.3-0.6c-1-0.5-1.9-1-2.9-1.5c-1.1-0.7-2.8-0.3-3.4,0.9C221.6,193.7,222,195.3,223.2,196L223.2,196z"/>
		</g>
	</g>
	<g>
		<g>
			<path d="M223.1,190.9c-0.7,0.2-1.4,0.5-2.1,0.8c-0.5,0.2-1,0.5-1.5,0.8s-1,0.9-1.1,1.5c-0.1,0.3-0.1,0.7,0,1
				c0,0.3,0.1,0.6,0.3,0.9c0.3,0.5,0.9,1,1.5,1.1s1.4,0.1,1.9-0.3c0.6-0.4,1.2-0.7,1.8-0.9c-0.2,0.1-0.4,0.2-0.6,0.3
				c0.4-0.2,0.8-0.3,1.2-0.4c0.6-0.2,1.2-0.6,1.5-1.1c0.2-0.3,0.3-0.6,0.3-0.9c0.1-0.3,0.1-0.7,0-1c-0.2-0.6-0.6-1.2-1.1-1.5
				C224.5,190.9,223.8,190.7,223.1,190.9L223.1,190.9z"/>
		</g>
	</g>
	<g>
		<g>
			<path d="M343.6,190.3c-0.4,0.2-0.8,0.4-1.2,0.6c0.7-0.2-0.1,0-0.2,0.1c-0.2,0.1-0.3,0.1-0.5,0.2c-0.9,0.4-1.9,0.7-2.9,1
				c-2.2,0.7-4.5,1.2-6.8,1.5c0.5-0.1-0.4,0-0.5,0.1c-0.2,0-0.5,0-0.7,0.1c-0.6,0.1-1.2,0.1-1.8,0.1c-1,0.1-2.1,0.1-3.1,0.1
				c-0.9,0-1.8-0.1-2.8-0.1c-0.4,0-0.8-0.1-1.2-0.1c-0.2,0-0.4,0-0.6-0.1c-0.2,0-0.9-0.1-0.1,0c-0.7-0.1-1.3-0.1-1.9,0.3
				c-0.5,0.3-1,0.9-1.1,1.5c-0.3,1.2,0.4,2.9,1.7,3.1c4.4,0.6,8.7,0.6,13.1,0c4.6-0.6,8.9-2,13.1-3.9c1.2-0.6,1.6-2.4,0.9-3.4
				C346.2,190,344.9,189.8,343.6,190.3L343.6,190.3z"/>
		</g>
	</g>
	<g>
		<g>
			<path d="M312.2,256.3c-7.5-3.1-15.8-5-24-4.7c-4.8,0.1-9.5,0.8-14.3,1.3c-5.7,0.6-11.3,1.1-17,1.7c-1.3,0.1-2.6,1.1-2.5,2.5
				c0.1,1.2,1.1,2.6,2.5,2.5c8.5-0.8,17-1.7,25.6-2.6c4.1-0.4,8.1-0.6,12.3-0.2c0.3,0,0.6,0.1,0.8,0.1c0.1,0,0.2,0,0.3,0
				c0.6,0.1-0.6-0.1,0,0s1.2,0.2,1.9,0.3c1.3,0.2,2.6,0.5,3.9,0.8c3.1,0.8,6.1,1.8,9,3c1.2,0.5,2.8-0.5,3.1-1.7
				C314.3,257.9,313.5,256.8,312.2,256.3L312.2,256.3z"/>
		</g>
	</g>
	<g>
		<g>
			<path d="M310.9,158.2c0.6-0.4,1.2-0.7,1.8-1c0.2-0.1,0.3-0.1,0.5-0.2c0.6-0.3-0.5,0.2,0.1-0.1c0.4-0.1,0.8-0.3,1.2-0.4
				c1.4-0.5,2.8-0.9,4.3-1.2s3-0.6,4.5-0.9c0.7-0.1,1.4-0.2,2.1-0.3c0.4-0.1,0.7-0.1,1.1-0.2c0.2,0,0.5-0.1,0.7-0.1
				c0.1,0,0.7-0.1,0.3,0c0.8-0.1,1.7-0.2,2.5-0.2c0.4,0,0.9,0,1.3,0.1c0.2,0,0.3,0,0.5,0.1c-0.6-0.1,0.3,0.1,0.4,0.1
				c1.5,0.3,3,0.8,4.5,1.3c1.6,0.5,3.1,1,4.7,1.6c0.3,0.1,0.7,0.3,1,0.4c0.7,0.3-0.4-0.2,0.2,0.1c0.1,0.1,0.3,0.1,0.4,0.2
				c0.3,0.1,0.6,0.3,0.9,0.5c0.2,0.1,0.3,0.2,0.5,0.3c0.1,0.1,0.2,0.1,0.3,0.2c-0.1-0.1-0.1-0.1-0.2-0.2c0.1,0,0.3,0.3,0.4,0.4
				c0,0,0.4,0.5,0.1,0.1c-0.3-0.3,0.1,0.1,0.1,0.2c0.3,0.5,0-0.2,0,0.1c0,0.2,0.2,0.6,0,0c0.1,0.2,0,0.4,0,0.6c0,0.1-0.1,0.5,0,0
				c-0.1,0.3-0.1,0.6-0.2,0.8c0,0.1-0.1,0.3-0.1,0.4c-0.2,0.6,0,0,0,0s-0.3,0.7-0.4,0.7c-0.1,0.1-0.1,0.2-0.2,0.3
				c-0.3,0.5,0.4-0.4,0,0.1c-0.1,0.1-0.2,0.2-0.3,0.3c-0.1,0.1-0.6,0.5-0.1,0.2c-0.3,0.2-0.6,0.4-0.9,0.5c0,0-0.6,0.3-0.2,0.1
				s-0.2,0.1-0.2,0.1c-0.3,0.1-0.6,0.2-0.9,0.3c-0.2,0-0.4,0.1-0.6,0.1c-0.1,0-0.7,0.2-0.1,0c-0.6,0.2-1.4,0.1-2,0.1
				c-0.7,0-1.5,0-2.2-0.1c-0.4,0-0.7-0.1-1.1-0.1c-0.1,0-0.8-0.1-0.3,0c-0.2,0-0.4-0.1-0.6-0.1c-0.8-0.1-1.7-0.3-2.5-0.4
				c-1.6-0.3-3.3-0.6-4.9-0.9c-3.4-0.6-6.8-0.8-10.3-1.1c-0.5,0-0.9-0.1-1.4-0.1c-0.2,0-0.5,0-0.7-0.1c-0.1,0-0.8-0.1-0.2,0
				c-0.9-0.1-1.7-0.3-2.5-0.5c-0.4-0.1-0.8-0.2-1.2-0.4c-0.1-0.1-0.7-0.2-0.1,0c-0.2,0-0.4-0.2-0.5-0.2c-0.2-0.1-0.8-0.4-0.9-0.6
				c0.1,0.1,0.2,0.1,0.2,0.2c-0.1-0.1-0.1-0.1-0.2-0.2c0,0-0.3-0.4-0.4-0.4c0.2,0,0.3,0.5,0.1,0.1c0-0.1-0.1-0.1-0.1-0.2
				c-0.1-0.2-0.1-0.2,0.1,0.2l-0.1-0.2c-0.1-0.3,0-0.2,0,0.3c0-0.1,0-0.2,0-0.2c0.1-0.4-0.1,0.3-0.1,0.3c0-0.1,0.1-0.4,0.1-0.5
				c0,0.4-0.2,0.5-0.1,0.2c0.1-0.2,0.2-0.3,0.3-0.5c0.2-0.3,0.1,0.1-0.1,0.2c0.1,0,0.3-0.4,0.4-0.4l0.2-0.2
				c-0.3,0.2-0.3,0.3-0.1,0.1c0.1-0.1,0.2-0.1,0.3-0.2c0.1-0.1,0.2-0.1,0.3-0.2c0.1-0.1,0.2-0.1,0.3-0.2c-0.3,0.1-0.4,0.1-0.2,0.1
				c0.4-0.1,0.8-0.2,1.2-0.3c1.3-0.3,2.1-1.9,1.7-3.1c-0.4-1.4-1.7-2-3.1-1.7c-3.1,0.6-6.4,3.2-6.2,6.6c0.1,3.7,4.1,5.6,7.3,6.3
				c3.7,0.9,7.6,0.8,11.4,1.2c0.2,0,0.3,0,0.5,0.1c0.1,0,0.8,0.1,0.3,0c0.5,0.1,0.9,0.1,1.4,0.2c0.9,0.1,1.8,0.3,2.8,0.5
				c1.8,0.3,3.7,0.7,5.5,1c3.5,0.5,7.3,1,10.7-0.2c1.9-0.7,3.5-1.8,4.7-3.5c1-1.4,1.6-3.4,1.6-5.1c0-4.4-4.2-6.2-7.7-7.5
				s-7.1-2.6-10.8-3.1c-2.3-0.3-4.6,0.1-6.9,0.4c-1.9,0.3-3.7,0.6-5.6,0.9c-3.8,0.7-7.6,1.8-11,3.8c-1.1,0.7-1.6,2.3-0.9,3.4
				C308.2,158.5,309.7,159,310.9,158.2L310.9,158.2z"/>
		</g>
	</g>
	<g>
		<g>
			<path d="M296.3,207.4c2.2,3.9,4.3,7.7,6.5,11.6c0.5,0.9,1.1,1.9,1.6,2.8c0.3,0.5,0.5,0.9,0.8,1.4c0.1,0.2,0.2,0.4,0.4,0.7
				c0.1,0.1,0.2,0.3,0.2,0.4c0.3,0.6,0.1,0.6,0.5-0.9c0.1-0.4,0.2-0.8,0.3-1.2c0.1,0,0.2-0.1,0.3-0.1c0,0-0.3,0.1-0.4,0.1
				c-0.3,0.1-0.6,0.2-0.8,0.3c-0.5,0.2-1,0.3-1.5,0.5c-1.1,0.3-2.1,0.7-3.2,1c-2.4,0.8-4.7,1.6-7.1,2.3c-1.2,0.4-2.2,1.7-1.7,3.1
				c0.4,1.2,1.7,2.2,3.1,1.7c2.3-0.8,4.6-1.5,6.8-2.3c1.2-0.4,2.4-0.8,3.5-1.2c0.6-0.2,1.1-0.4,1.7-0.5c0.6-0.2,1.3-0.4,1.9-0.7
				c0.8-0.5,1.4-1.3,1.5-2.2c0.1-1-0.2-1.8-0.7-2.6c-0.6-1.1-1.2-2.1-1.8-3.2c-1.2-2.1-2.4-4.3-3.6-6.4c-1.3-2.4-2.7-4.8-4-7.2
				c-0.6-1.1-2.3-1.6-3.4-0.9C296.1,204.7,295.7,206.2,296.3,207.4L296.3,207.4z"/>
		</g>
	</g>
	<g>
		<g>
			<path d="M342,138.1c0.5,4.4,1,8.9,1.3,13.3c0.1,1.2,0,2.6,0.3,3.7c0.2,0.7,0.6,1.3,1.2,1.8c0.2,0.2,0.4,0.3,0.6,0.5
				c0.1,0.1,0.3,0.2,0.4,0.3c0.3,0.2-0.1-0.1-0.2-0.1c0.3,0.3-0.2-0.3,0.1,0.1c0.1,0.2,0.2,0.5,0.1,0.1c0.1,0.2,0.1,0.4,0.2,0.6
				c0,0.1,0,0.2,0.1,0.3c0.1,0.3,0-0.4,0,0c0,0.2,0,0.4,0,0.6c0-0.4,0-0.2,0,0.1c0,0.1-0.2,0.2,0,0c0.2-0.3-0.1,0-0.1,0
				s0-0.1,0.1-0.1c0.1-0.1,0.1-0.1,0,0c0,0-0.4,0.4-0.1,0.1c0.2-0.2,0,0,0,0c-0.2,0.1-0.4,0.3-0.6,0.4c-0.2,0.1-0.3,0.3-0.5,0.4
				c-0.5,0.6-0.9,1.4-1,2.2c-0.1,0.7-0.1,1.4,0.1,2.1c0,0.1-0.1-0.7,0-0.3c0,0.1,0,0.3,0,0.4c0.1,2.3,0,4.5,0,6.8
				c-0.1,4.6-0.3,9.3-0.6,13.9c-0.2,2.8-0.4,5.5-0.7,8.3c-0.1,0.6-0.1,1.3-0.2,1.9c-0.1,1.2-0.3,2.5-0.4,3.7c0,0.3-0.1,0.5-0.1,0.8
				c-0.1,0.5,0-0.1,0,0.3c-0.1,0.5-0.2,1.1-0.2,1.6c-0.6,3.8-1.3,7.5-2.1,11.3c-1.7,8.1-3.7,16.2-6.2,24.2c-2.8,9-6,18-9.3,26.8
				c-0.7,1.8-1.3,3.5-2.1,5.3c-0.2,0.4-0.3,0.8-0.5,1.3c-0.1,0.3,0-0.1,0.1-0.1c0,0.1-0.1,0.2-0.1,0.3c-0.1,0.2-0.2,0.4-0.3,0.7
				c-0.3,0.8-0.7,1.6-1,2.3c-1.2,2.7-2.6,5.4-4.2,7.9c-0.7,1.1-1.5,2.2-2.3,3.3c-0.3,0.4,0.3-0.4,0,0c-0.1,0.1-0.2,0.2-0.3,0.3
				c-0.2,0.2-0.4,0.5-0.6,0.7c-0.4,0.5-0.8,0.9-1.2,1.4c-0.8,0.8-1.7,1.7-2.6,2.4c-0.1,0.1-0.2,0.2-0.3,0.3
				c-0.3,0.3,0.4-0.3,0.1-0.1c-0.3,0.2-0.5,0.4-0.8,0.6c-0.5,0.3-0.9,0.6-1.4,0.9s-1,0.6-1.6,0.9c-0.4,0.2-0.8,0.4-1.2,0.6
				c-0.3,0.1-0.5,0.2-0.8,0.3c0,0-0.4,0.2-0.1,0.1c0.2-0.1-0.2,0.1-0.3,0.1c-1.9,0.8-4,1.4-6,1.8c-1.1,0.2-2.1,0.5-3.2,0.6
				c-0.3,0-0.5,0.1-0.8,0.1c-0.1,0-0.7,0.1-0.3,0.1c-0.5,0.1-1.1,0.1-1.7,0.2c-2.2,0.2-4.5,0.4-6.7,0.4c-4.4,0.1-8.7-0.1-13.1-0.5
				c-2.1-0.2-4.1-0.4-6.2-0.6c-1-0.1-2-0.2-3-0.3c-0.6-0.1-1.2-0.1-1.8-0.2c-0.3,0-0.7-0.1-1-0.1c-0.1,0-0.3,0-0.4-0.1
				c0.3,0-0.1,0-0.2,0c-1.9-0.3-3.7-0.6-5.6-0.9c-1.3-0.2-2.8,0.4-3.1,1.7c-0.3,1.2,0.4,2.8,1.7,3.1c4.3,0.8,8.7,1.3,13.1,1.8
				c4.3,0.4,8.6,0.8,12.9,1c8.8,0.4,18.2,0,26.5-3.3c5.3-2.1,9.8-5.3,13.3-9.8c4-5,6.7-10.8,9.2-16.7c3.3-8,6.1-16.2,8.9-24.4
				c3.1-9.1,5.9-18.3,8-27.8c0.9-3.8,1.7-7.7,2.4-11.5c1-5.8,1.8-11.6,2.2-17.4c0.3-3.8,0.6-7.6,0.7-11.4c0.2-4.8,0.4-9.7,0.3-14.6
				c0-0.3,0-0.5,0-0.8s-0.1-0.6-0.1-0.8c0-0.1,0-0.1,0-0.2c-0.1-0.3,0,0.1,0,0.1c0,0.1,0,0.2-0.1,0.3c0,0-0.2,0.4-0.1,0.1
				c0-0.1,0.4-0.3,0.1-0.1c-0.2,0.2,0,0,0,0c0.6-0.5,1.1-0.9,1.5-1.5c1.3-1.9,1-4.7,0-6.7c-0.3-0.5-0.6-0.9-1-1.3
				c-0.2-0.2-0.5-0.4-0.7-0.6c-0.1,0-0.2-0.2,0,0c0.3,0.2-0.1-0.1-0.1-0.1l-0.2-0.2c0.2,0,0.2,0.5,0.3,0.5c0.2,0.8,0.1-0.1,0.1-0.3
				c0-0.7-0.1-1.3-0.1-2c-0.2-2.4-0.4-4.9-0.6-7.3c-0.2-2-0.4-4-0.7-6c-0.2-1.3-1-2.6-2.5-2.5C343.3,135.7,341.8,136.7,342,138.1
				L342,138.1z"/>
		</g>
	</g>
	<g>
		<g>
			<path d="M58.4,379.9c-4.8-3.6-6-9.8-6.2-15.4c-0.2-7.5,1.8-14.6,3.2-21.9c3-16.2,4.8-32.5,5.7-48.9c1.9-32.8,0.9-65.6,2.7-98.4
				c1.7-30.3,5.1-60.7,16.3-89.1c2.7-6.9,5.9-13.7,9.4-20.3c1.9-3.6,3.9-7.1,6-10.5c1-1.6,2.3-2.8,3.6-4.2c1.4-1.4,2.3-2.8,3.4-4.4
				c7.2-11.1,16.2-21.1,26.5-29.5c19.8-16.2,45.2-26.3,71-24.5c3.1,0.2,6.2,0.6,9.3,1.2c3.1,0.6,4.5-4.2,1.3-4.8
				c-26.5-5-53.6,2.5-75.7,17.5c-11.2,7.6-21.2,17-29.6,27.7c-2.1,2.7-4.2,5.5-6.1,8.4c-1,1.5-1.8,3-3,4.3c-1.4,1.5-3.1,2.8-4.2,4.5
				c-4.3,6.7-8,13.9-11.4,21.1c-6.4,13.8-11.3,28.2-14.6,43.1c-3.4,15.3-5,31-6.2,46.6c-2.7,33.7-1.6,67.6-3.1,101.4
				c-0.7,17-2.1,33.9-4.9,50.7c-0.7,4.3-1.5,8.6-2.4,12.9c-0.8,3.8-1.6,7.5-2,11.4c-0.5,6.2-0.3,12.8,2.5,18.5
				c1.4,2.8,3.4,5.1,5.9,6.9C58.4,386.2,60.9,381.8,58.4,379.9L58.4,379.9z"/>
		</g>
	</g>
	<g>
		<g>
			<path d="M190.3,174.4c-0.9,6.5-1.4,13.1-1.8,19.7c-0.5,7.2-0.8,14.4-1.1,21.7c-0.1,3.4-0.2,6.7-0.3,10.1c0,1.3,1.2,2.6,2.5,2.5
				c1.4-0.1,2.5-1.1,2.5-2.5c0.2-6.4,0.4-12.8,0.7-19.2c0.3-7.2,0.7-14.3,1.3-21.5c0.1-1.8,0.3-3.5,0.5-5.3c0.1-0.8,0.2-1.6,0.3-2.5
				c0-0.4,0.1-0.8,0.1-1.1c0-0.2,0-0.4,0.1-0.5c0-0.3-0.1,0.4,0,0.3c0-0.1,0-0.3,0.1-0.4c0.1-0.7,0.1-1.3-0.3-1.9
				c-0.3-0.5-0.9-1-1.5-1.1C192.2,172.4,190.5,173.1,190.3,174.4L190.3,174.4z"/>
		</g>
	</g>
	<g>
		<g>
			<path d="M247.8,186.6c-0.1,0-0.2,0-0.3,0c0.2,0,0.4,0,0.5,0.1c-0.1,0-0.4-0.1,0,0c0.4,0.2,0.1,0,0,0c-0.3-0.2,0.4,0.4,0.2,0.1
				c-0.1-0.1-0.1-0.1-0.2-0.2c-0.1-0.1-0.1-0.1-0.2-0.2c-0.1-0.1-0.3-0.4,0,0c0.3,0.3-0.1-0.1-0.1-0.2c-0.1-0.2-0.2-0.4-0.4-0.6
				c-0.1-0.2-0.2-0.4-0.3-0.6c0.3,0.5,0.1,0.2,0,0.1c0-0.1-0.1-0.3-0.1-0.4c0,0.2,0,0.4,0.1,0.5c0-0.2,0-0.4,0-0.6
				c0,0.2,0,0.4-0.1,0.5c0-0.1,0-0.2,0.1-0.2c0.1-0.2-0.2,0.4,0,0.1c0,0-0.4,0.4-0.1,0.2c0.2-0.2-0.2,0.2-0.2,0.1
				c0,0,0.1-0.1,0.2-0.1c0.1-0.1,0.3-0.1-0.2,0.1c0.2,0,0.3-0.1,0.5-0.2c0.6-0.2,1.3-0.4,2-0.5c-0.2,0-0.4,0-0.5,0.1
				c0.3,0,0.7-0.1,1,0c-0.2,0-0.4,0-0.5-0.1c0.2,0,0.4,0.1,0.5,0.1c0.2,0.1-0.4-0.2-0.1-0.1c0.1,0.1,0.2,0.1,0.3,0.2
				c-0.4-0.2-0.3-0.2-0.1-0.1c0.1,0.1,0.3,0.3,0,0c-0.2-0.3,0,0,0,0c0.1,0.1,0.1,0.2,0.1,0.3s0.1,0.1,0.1,0.2
				c0.1,0.2-0.2-0.5-0.1-0.1c0.1,0.2,0.2,0.4,0.2,0.6c0.1,0.4,0.3,0.8,0.3,1.3c0-0.2,0-0.4-0.1-0.5c0,0.3,0,0.7,0,1
				c0-0.2,0-0.4,0.1-0.5c0,0.2-0.1,0.3-0.1,0.4c-0.1,0.3,0.1-0.1,0.1-0.2c0,0-0.1,0.1-0.1,0.2c0,0-0.1,0.2-0.1,0.1
				c0,0,0.3-0.4,0.1-0.2c-0.1,0.1-0.4,0.4-0.1,0.1c0.3-0.2,0,0-0.1,0.1c-0.1,0-0.1,0.1-0.2,0.1c-0.2,0.1,0.4-0.1,0.2-0.1
				c-0.3,0.1-0.5,0.1-0.7,0.2c0.2,0,0.4,0,0.5-0.1c-0.3,0-0.6,0-0.9,0c0.2,0,0.4,0,0.5,0.1c-0.2,0-0.5-0.1-0.7-0.2
				c-0.4-0.2,0.4,0.2,0.1,0c-0.1-0.1-0.2-0.1-0.4-0.2c-0.1-0.1-0.2-0.1-0.3-0.2c-0.2-0.1-0.1-0.1,0.2,0.1c-0.1,0-0.1-0.1-0.2-0.1
				c-0.2-0.2-0.4-0.3-0.5-0.5c0-0.1-0.3-0.4-0.1-0.1c0.2,0.3-0.1-0.1-0.1-0.1c-0.1-0.2-0.3-0.4-0.4-0.6c-0.1-0.1-0.1-0.2-0.2-0.3
				c0-0.1-0.1-0.1-0.1-0.2c0,0.1,0.1,0.2,0.1,0.3c-0.1-0.1-0.2-0.6-0.2-0.7c0,0.2,0,0.4,0.1,0.5c0-0.2,0-0.4,0-0.6
				c0,0.2,0,0.4-0.1,0.5c0-0.1,0.1-0.2,0.1-0.2c-0.2,0.3-0.2,0.4-0.1,0.3c0,0,0-0.1,0.1-0.1c-0.1,0.1-0.1,0.2-0.2,0.3
				c0.2-0.1,0.1-0.1-0.2,0.2c0,0-0.6,0.2-0.3,0.2c-0.2,0-0.4,0-0.5,0.1c0,0,0,0,0.1,0c-0.2,0-0.4,0-0.5-0.1c0.1,0,0.1,0,0.2,0.1
				c-0.6-0.2-0.5-0.2-0.3-0.1c0,0,0.1,0,0.1,0.1c0.4,0.2,0.8,0.4,1.2,0.5c0.7,0.2,1.5,0.2,2.3,0.3c-0.2,0-0.4,0-0.5-0.1
				C248.4,186.8,247.7,186.5,247.8,186.6s-0.4-0.3-0.3-0.2c0,0-0.3-0.5-0.2-0.3c0.1,0.3-0.2-0.5-0.1-0.2c0,0.1,0,0.2,0.1,0.3
				c0-0.2,0-0.4-0.1-0.5c0,0.2,0,0.5,0,0.7c0-0.2,0-0.4,0.1-0.5c0,0.2-0.1,0.4-0.1,0.7c0,0.1-0.1,0.2-0.1,0.4c0,0,0.2-0.5,0.1-0.3
				c0,0.1-0.1,0.1-0.1,0.2c0,0-0.2,0.2-0.2,0.3c0,0,0.4-0.4,0.2-0.2l-0.1,0.1c-0.1,0.1-0.2,0.2,0.1-0.1c0.3-0.2,0.1-0.1,0.1-0.1
				c-0.2,0.1,0.3-0.1,0.3-0.1s-0.1,0-0.2,0c-1,0.2-1.7,1.5-1.4,2.5c0.4,1.1,1.4,1.6,2.5,1.4c1.9-0.4,2.7-2.6,2.9-4.3
				c0.1-0.9-0.2-1.9-0.8-2.6c-0.4-0.4-0.9-0.7-1.5-0.7c-0.4,0-0.7-0.1-1.1-0.1c0.2,0,0.4,0,0.5,0.1c-0.3-0.1-0.7-0.1-1-0.2
				c-0.1,0-0.1,0-0.2-0.1c-0.3-0.1,0.4,0.2,0.2,0.1c-0.1-0.1-0.2-0.1-0.3-0.2c-0.9-0.4-1.7-0.6-2.6-0.1c-1,0.5-1.4,1.6-1.5,2.6
				c-0.1,0.9,0.2,1.7,0.6,2.5c1.3,2.8,4.4,5.1,7.5,4c0.8-0.3,1.5-0.7,2.1-1.3c0.7-0.8,1.1-1.8,1.2-2.9c0.1-0.8-0.1-1.7-0.4-2.5
				c-0.2-0.7-0.5-1.5-1-2.2c-0.6-0.9-1.4-1.5-2.4-1.8c-0.9-0.3-1.8-0.2-2.7-0.1c-0.6,0.1-1.2,0.3-1.8,0.5c-0.8,0.2-1.6,0.5-2.1,1.2
				c-0.9,1-1.1,2.3-0.8,3.6c0.2,0.7,0.5,1.3,0.9,1.9c0.3,0.5,0.7,1.1,1.2,1.5c0.6,0.6,1.6,1.2,2.5,1.1c0.6-0.1,1-0.2,1.4-0.6
				c0.3-0.3,0.6-0.9,0.6-1.4s-0.2-1.1-0.6-1.4C248.9,186.8,248.3,186.5,247.8,186.6z"/>
		</g>
	</g>
	<g>
		<g>
			<path d="M326.3,182.1c0.3,0.1-0.5-0.2-0.3-0.1c0,0,0.1,0,0.1,0.1c0.1,0.1,0.2,0.1,0.4,0.2c0.1,0.1,0.2,0.1,0.4,0.2
				c0.1,0,0.1,0.1,0.1,0.1c0.3,0.2-0.4-0.4,0,0c0.1,0.1,0.2,0.2,0.4,0.4c0.3,0.3-0.3-0.4,0-0.1c0,0.1,0.1,0.1,0.1,0.2
				c0.1,0.1,0.1,0.2,0.2,0.3c0.2,0.3-0.1-0.1-0.1-0.1c0,0.1,0.1,0.3,0.1,0.3c0,0.1,0,0.1,0,0.2c0-0.1,0-0.2,0-0.3
				c0.1,0.1,0,0.4,0,0.5c0,0.3,0.1,0.7,0.1,1c0,0.2,0.1,0.4,0.2,0.6v0.1c-0.1-0.2-0.1-0.4,0-0.7c0.8-0.8,1-1,0.6-0.8
				c0.4-0.2,0.2-0.1,0.1,0s-0.3,0.1-0.4,0.2c-0.2,0.1-0.4,0.2-0.6,0.3s-0.4,0.1-0.6,0.2H327c-0.2,0-0.2,0,0.2,0c-0.1,0-0.2,0-0.2,0
				c0.1,0,0.2,0,0.3,0c-0.4,0,0.4,0.2,0.1,0c0.4,0.3,0.2,0.2,0.1,0.1c-0.2-0.2,0.3,0.4,0.1,0.1c-0.1-0.1-0.1-0.2-0.2-0.3
				c-0.1-0.2,0-0.2,0.1,0.2c0-0.1-0.1-0.3-0.1-0.4c0-0.1-0.1-0.2-0.1-0.2c0-0.1,0-0.4-0.1-0.5c0.2,0.2,0,0.4,0,0.1v-0.1
				c0-0.2,0-0.2,0,0.2c0-0.1,0-0.2,0.1-0.2c0.1-0.2,0.2-0.1-0.1,0.2c0-0.1,0.1-0.2,0.1-0.2c-0.1,0.4-0.3,0.3-0.1,0.2
				c0.1-0.1,0.1-0.1,0.2-0.2c-0.3,0.2-0.3,0.3-0.2,0.1c0,0,0.1,0,0.1-0.1c0.1,0,0.2-0.1,0.2-0.1c-0.4,0.3-0.4,0.1-0.2,0.1
				c0.1,0,0.2,0,0.2-0.1c0.4-0.1-0.5,0-0.2,0c0.1,0,0.1,0,0.2,0c0.2,0,0.3,0.1-0.2,0c0.1,0,0.1,0,0.2,0c0.2,0.1,0.5,0.3,0,0
				c0.1,0.1,0.3,0.2,0.5,0.3c0.3,0.2-0.3-0.3-0.1-0.1c0.1,0.1,0.1,0.1,0.2,0.2c0.1,0.1,0.2,0.3,0.4,0.4c-0.4-0.4-0.1-0.2,0,0
				c0.1,0.1,0.1,0.2,0.2,0.3c0.1,0.2,0.2,0.4,0.3,0.5c0.1,0.2-0.2-0.5,0-0.1c0,0.1,0.1,0.2,0.1,0.3s0,0.2,0.1,0.2
				c0.1,0.4,0-0.5,0-0.1v0.2c0.1-0.3,0.1-0.4,0-0.2c0.1-0.3,0.2-0.4,0.1-0.2c0.3-0.4,0.2-0.3,0.1-0.2c0.4-0.4,0.2-0.2,0.1-0.1
				c-0.3,0.2,0.4-0.1,0.1-0.1c-0.1,0-0.2,0.1-0.3,0.1c-0.2,0.1-0.4,0.1-0.6,0.2c-0.1,0-0.3,0.1-0.4,0.1s-0.1,0-0.2,0
				c-0.2,0-0.1,0,0.2,0c-0.1,0-0.3,0-0.4,0h-0.1c-0.2,0-0.2,0,0,0h0.1c-0.1,0-0.1,0-0.2-0.1h-0.1c-0.2-0.1-0.1,0,0.2,0.1
				c-0.1-0.1-0.3-0.2-0.5-0.3c-0.3-0.2,0.1,0.1,0.1,0.1c-0.1-0.1-0.2-0.2-0.3-0.3c-0.1-0.1-0.3-0.3-0.4-0.4
				c-0.3-0.3,0.2,0.3,0.1,0.1c-0.1-0.1-0.1-0.2-0.2-0.2c-0.2-0.3-0.5-0.7-0.7-1.1c-0.1-0.2-0.2-0.4-0.3-0.6c-0.2-0.4,0.1,0.4,0,0
				c0-0.1-0.1-0.3-0.1-0.4c-0.1-0.3,0.1,0,0,0.2v-0.1c0-0.2,0-0.2,0,0.2l0.1-0.2c-0.1,0.3-0.2,0.4-0.1,0.2s0.1-0.1-0.1,0.2l0.1-0.1
				c0.2-0.3-0.4,0.2-0.1,0.1c0.1,0,0.1-0.1,0.2-0.1c0.2-0.1,0.3-0.1-0.2,0.1c0.4-0.1,0.8-0.3,1.2-0.4c0.1,0,0.3,0,0.4-0.1
				c-0.1,0.1-0.4,0-0.2,0c0.1,0,0.3,0,0.4,0c-0.1,0-0.5-0.1-0.1,0c0.3,0-0.4-0.2-0.1,0c0.4,0.2-0.3-0.3,0,0c0.1,0.1,0.1,0.1,0.2,0.2
				c0.1,0.1,0.2,0.3,0.3,0.4c-0.2-0.1-0.2-0.3-0.1-0.1c0.1,0.1,0.1,0.2,0.2,0.3c0.1,0.2,0.2,0.4,0.3,0.5c0.1,0.2,0.2,0.4,0.3,0.6
				c0.1,0.1,0.1,0.2,0.2,0.3c0.2,0.4-0.2-0.4,0,0c0.2,0.5,0.3,0.9,0.4,1.4v0.1c0,0.2,0,0.2,0-0.2c0,0.1,0,0.1,0,0.2
				c0,0.2,0,0.1,0-0.3c0.1-0.3,0.3-0.6,0.6-0.7c-0.3,0.2,0.5-0.1,0.2-0.1c0.1,0,0.2,0,0.4,0c-0.1,0-0.1,0-0.2,0
				c0.4,0.1,0.5,0.1,0.3,0H330c-0.4-0.1,0.5,0.3,0.1,0.1c-0.1-0.1-0.2-0.1-0.3-0.2c-0.1,0-0.2-0.2-0.3-0.2c0.2,0.2,0.3,0.2,0.1,0.1
				l-0.1-0.1c-0.2-0.2-0.4-0.3-0.5-0.5c-0.2-0.2-0.3-0.4-0.5-0.6l-0.2-0.3c0.2,0.2,0.2,0.3,0.1,0.1c0,0,0-0.1-0.1-0.1
				c-0.3-0.3,0.1,0.4,0,0c0.1,0.4,0,0.9-0.3,1.2c0.3-0.3-0.4,0.2-0.1,0c0.1-0.1,0.3-0.2,0.4-0.3c0.5-0.3,0.9-0.6,1.4-0.9
				c0.4-0.3,0.8-0.4,1.3-0.6c0.4-0.2,0.8-0.8,0.9-1.2c0.1-0.5,0.1-1.1-0.2-1.5c-0.3-0.4-0.7-0.8-1.2-0.9c-0.6-0.1-1,0-1.5,0.2
				c-1.1,0.5-2.1,1.2-3.1,1.9s-1.6,1.6-1.5,2.9c0.1,0.9,0.7,1.6,1.3,2.3c0.9,1.1,1.9,2.1,3.3,2.5c0.8,0.2,1.8,0.2,2.5-0.2
				c0.9-0.6,1.4-1.5,1.4-2.6c0-1.4-0.6-2.9-1.3-4.1c-0.7-1.3-1.6-2.6-3-3.2c-1.4-0.6-2.9-0.3-4.3,0.3c-0.7,0.3-1.3,0.6-1.8,1.2
				c-0.6,0.7-1,1.6-0.9,2.6c0.1,1.4,0.8,2.7,1.6,3.9c0.8,1.2,1.8,2.2,3.3,2.7c1.4,0.5,3.1,0.2,4.4-0.4c0.8-0.3,1.6-0.8,2-1.7
				s0.5-1.8,0.2-2.8c-0.7-2.6-3.1-5.1-6-4.7c-1.3,0.2-2.7,1-3.3,2.3c-0.7,1.6-0.4,3.3,0.3,4.8c0.3,0.7,0.9,1.4,1.6,1.7
				c0.9,0.4,1.8,0.5,2.8,0.2c0.7-0.2,1.3-0.5,2-0.8c0.5-0.2,1-0.5,1.3-1c0.4-0.5,0.4-1.2,0.4-1.8c0-0.3-0.1-0.6-0.2-0.9
				c0-0.1-0.1-0.6,0-0.2c0.1,0.4,0-0.1,0-0.2c-0.1-0.8-0.2-1.5-0.5-2.2c-0.5-1.1-1.5-2-2.5-2.6c-0.4-0.2-0.8-0.4-1.2-0.6
				c-0.4-0.2-1.1,0-1.5,0.2s-0.8,0.7-0.9,1.2s-0.1,1.1,0.2,1.5C325.4,181.7,325.8,181.9,326.3,182.1L326.3,182.1z"/>
		</g>
	</g>
	<g>
		<g>
			<path d="M57.4,383.2c-4.9,6.1-9.7,12.3-14,18.8c-4,6.2-7.6,12.7-10.6,19.5c-3.6,8.2-6.4,16.7-8.8,25.3c-1.3,4.7-2.4,9.4-3.4,14.1
				c-1,4.3-1.8,8.7-2.7,13c-0.8,3.7-1.7,7.4-1.8,11.2c-0.1,3.6,0.5,7.4,2.7,10.3c0.6,0.8,1.3,1.6,2,2.2c1,0.9,2.6,1,3.5,0
				c0.9-0.9,1.1-2.6,0-3.5c-0.3-0.3-0.6-0.5-0.9-0.8c-0.2-0.2-0.3-0.3-0.4-0.5c0-0.1-0.2-0.3,0,0c0.3,0.3-0.1-0.1-0.1-0.1
				c-0.2-0.3-0.4-0.6-0.6-1c-0.1-0.2-0.2-0.3-0.3-0.5c0-0.1-0.1-0.1-0.1-0.2c-0.2-0.5,0.1,0.4,0,0.1c-0.3-0.8-0.5-1.5-0.7-2.3
				c0-0.2-0.1-0.4-0.1-0.6c-0.1-0.4,0,0.5,0-0.1c0-0.4-0.1-0.8-0.1-1.3c0-0.9,0-1.7,0-2.6c0-0.4,0.1-0.8,0.1-1.2
				c0-0.2,0-0.4,0.1-0.6c0-0.1,0.1-0.5,0-0.1c0,0.4,0-0.2,0-0.2c0.3-1.8,0.6-3.5,1-5.3c1.9-8.7,3.6-17.4,5.8-26
				c2.2-8.5,4.9-16.9,8.2-25c0-0.1,0.1-0.2,0.1-0.3c0.1-0.3-0.2,0.4,0,0.1c0.1-0.2,0.2-0.4,0.3-0.6c0.2-0.4,0.4-0.9,0.6-1.3
				c0.4-0.9,0.8-1.7,1.2-2.6c0.8-1.7,1.6-3.3,2.4-4.9c1.6-3.2,3.4-6.3,5.3-9.3c1.9-3,3.9-6,6.1-8.9c1.1-1.5,2.2-3.1,3.4-4.6
				c0.3-0.4,0.6-0.7,0.8-1.1c-0.3,0.4,0,0,0.1-0.2c0.2-0.2,0.3-0.4,0.5-0.6c0.6-0.8,1.2-1.6,1.8-2.3c0.6-0.8,1.2-1.5,1.8-2.3
				c0.8-1,1.1-2.6,0-3.5C60,382.3,58.3,382.1,57.4,383.2L57.4,383.2z"/>
		</g>
	</g>
	<g>
		<g>
			<path d="M27.7,496.5c1.7-0.9,3.3-1.8,5.1-2.6c0.5-0.2,1-0.5,1.5-0.7c0.3-0.1,0.5-0.2,0.8-0.4c0.1,0,0.1,0,0.2-0.1
				c0.2-0.1-0.3,0.1-0.3,0.1c0.2-0.1,0.3-0.1,0.5-0.2c1.2-0.5,2.4-0.9,3.6-1.4c2.8-1,5.7-1.8,8.5-2.4c1.6-0.4,3.3-0.7,4.9-0.9
				c0.4-0.1,0.9-0.1,1.3-0.2c0.1,0,0.7-0.1,0.3,0c-0.4,0,0.1,0,0.2,0c0.1,0,0.3,0,0.4,0c0.9-0.1,1.9-0.2,2.8-0.3
				c4.1-0.4,8.2-0.5,12.3-0.3c2.1,0.1,4.1,0.2,6.2,0.5c0.5,0.1,0.9,0.1,1.4,0.2c0.2,0,0.6,0.1,0.2,0c0.3,0,0.6,0.1,0.8,0.1
				c1,0.1,1.9,0.3,2.9,0.5c3.5,0.6,6.9,1.5,10.3,2.5c1.6,0.5,3.1,1,4.6,1.6c0.7,0.3,1.4,0.5,2.2,0.8c0.3,0.1,0.6,0.3,1,0.4
				c0.1,0.1,0.3,0.1,0.4,0.2c0.1,0,0.7,0.3,0.3,0.1c-0.4-0.2,0.2,0.1,0.3,0.1c0.1,0.1,0.3,0.1,0.4,0.2c0.3,0.1,0.7,0.3,1,0.5
				c0.6,0.3,1.2,0.5,1.8,0.8c1.1,0.5,2.2,1.1,3.3,1.7c1.7,0.9,3.4,1.9,5.1,2.9c0.3,0.2,0.7,0.4,1,0.6c1.1,0.7,2.8,0.3,3.4-0.9
				c0.7-1.2,0.3-2.7-0.9-3.4c-3.6-2.3-7.4-4.3-11.3-6.1c-6.1-2.7-12.5-4.9-19.1-6.2c-8.2-1.7-16.6-2.3-24.9-1.8
				c-7,0.4-14,1.6-20.7,3.8c-4.6,1.5-9,3.4-13.2,5.6c-0.4,0.2-0.8,0.4-1.1,0.6c-1.2,0.6-1.6,2.3-0.9,3.4
				C25,496.8,26.4,497.2,27.7,496.5L27.7,496.5z"/>
		</g>
	</g>
	<g>
		<g>
			<path d="M17.8,493.8c2.5,4,6.2,7,9.4,10.5c0.9,1,2.7,1,3.5,0c1-1,0.9-2.5,0-3.5c-1.5-1.6-3.1-3.1-4.7-4.7
				c-0.8-0.8-1.5-1.6-2.2-2.4c-0.2-0.2-0.4-0.4-0.5-0.6c-0.1-0.1-0.1-0.2-0.2-0.3c0.4,0.5,0.1,0.1,0,0c-0.3-0.5-0.7-0.9-1-1.4
				c-0.7-1.1-2.3-1.6-3.4-0.9C17.6,491.1,17.1,492.6,17.8,493.8L17.8,493.8z"/>
		</g>
	</g>
	<g>
		<g>
			<path class="st5" d="M329.8,182.1h0.1c-0.2,0-0.4,0-0.5,0.1c0.1,0,0.2,0,0.3,0c-0.2,0-0.4,0-0.5-0.1c0.1,0,0.2,0,0.3,0.1
				c-0.2-0.1-0.3-0.1-0.5-0.2c0.1,0,0.2,0.1,0.3,0.2c-0.1-0.1-0.3-0.2-0.4-0.3c0.1,0.1,0.1,0.1,0.2,0.2c-0.1-0.1-0.2-0.3-0.3-0.4
				c0.1,0.1,0.1,0.2,0.2,0.3c-0.1-0.2-0.1-0.3-0.2-0.5c0,0.1,0.1,0.2,0.1,0.3c0-0.2,0-0.4-0.1-0.5c0,0.1,0,0.2,0,0.3
				c0-0.2,0-0.4,0.1-0.5c0,0.1,0,0.2-0.1,0.3c0.1-0.2,0.1-0.3,0.2-0.5c0,0.1-0.1,0.2-0.2,0.3c0.1-0.1,0.2-0.3,0.3-0.4
				c-0.1,0.1-0.1,0.1-0.2,0.2c0.1-0.1,0.3-0.2,0.4-0.3c-0.1,0-0.1,0.1-0.2,0.1c1,0.4,2,0.8,2.9,1.2c-0.2-0.4-0.3-0.9-0.5-1.3
				c-0.1-0.3-0.2-0.5-0.4-0.7c-0.1-0.2-0.3-0.4-0.6-0.5c-0.2-0.1-0.5-0.2-0.7-0.2c-0.3-0.1-0.5,0-0.8,0c-0.5,0.2-1,0.5-1.2,0.9
				c-0.1,0.2-0.1,0.3-0.2,0.5c-0.1,0.4-0.1,0.7,0,1.1c0.2,0.4,0.3,0.9,0.5,1.3c0.1,0.3,0.3,0.6,0.5,0.9c0.2,0.2,0.4,0.3,0.6,0.4
				c0.2,0.1,0.5,0.2,0.8,0.2c0.4,0,0.7-0.1,1-0.3c0.3-0.1,0.6-0.3,0.8-0.6c0.2-0.2,0.3-0.4,0.4-0.6c0.1-0.2,0.2-0.5,0.3-0.7
				c0.1-0.3,0.2-0.7,0.2-1c0-0.2,0-0.5-0.1-0.7c0-0.1,0-0.1-0.1-0.2c-0.2-0.5-0.4-0.8-0.7-1.2c-0.2-0.2-0.5-0.4-0.8-0.6
				c-0.3-0.2-0.6-0.3-0.9-0.3c-0.2,0-0.5-0.1-0.7-0.1s-0.5,0-0.7,0.1c-0.3,0.1-0.5,0.2-0.7,0.4c-0.2,0.1-0.4,0.3-0.5,0.6
				c-0.1,0.2-0.2,0.5-0.2,0.7c-0.1,0.3,0,0.5,0,0.8c0.2,0.5,0.5,1,0.9,1.2c0.2,0.1,0.3,0.1,0.5,0.2
				C329.1,182.2,329.5,182.2,329.8,182.1L329.8,182.1z"/>
		</g>
	</g>
	<g>
		<g>
			<path class="st5" d="M250.4,184.5c0.3,0.2,0.6,0.3,0.9,0.4c0.2,0.1,0.4,0.1,0.5,0.2c-0.2-0.1-0.3-0.1-0.5-0.2
				c0.2,0.1,0.4,0.2,0.6,0.3c-0.1-0.1-0.3-0.2-0.4-0.3l0.1,0.1c-0.1-0.1-0.2-0.3-0.3-0.4c0,0,0,0.1,0.1,0.1
				c-0.1-0.2-0.1-0.3-0.2-0.5c0,0.1,0,0.1,0.1,0.2c0-0.2,0-0.4-0.1-0.5c0,0.1,0,0.2,0,0.3c0-0.2,0-0.4,0.1-0.5c0,0.1,0,0.2-0.1,0.3
				c0.1-0.2,0.1-0.3,0.2-0.5c0,0.1-0.1,0.1-0.1,0.2c0.1-0.1,0.2-0.3,0.3-0.4l-0.1,0.1c0.1-0.1,0.3-0.2,0.4-0.3c0,0-0.1,0.1-0.2,0.1
				c0.2-0.1,0.3-0.1,0.5-0.2c-0.1,0-0.1,0-0.2,0c0.2,0,0.4,0,0.5-0.1c-0.1,0-0.1,0-0.2,0c0.2,0,0.4,0,0.5,0.1c-0.1,0-0.1,0-0.2,0
				c0.2,0.1,0.3,0.1,0.5,0.2c-0.1,0-0.1-0.1-0.2-0.1c0.1,0.1,0.3,0.2,0.4,0.3c-0.1-0.1-0.1-0.1-0.2-0.2c0.1,0.1,0.2,0.3,0.3,0.4
				c-0.1-0.1-0.1-0.1-0.1-0.2c0.1,0.2,0.1,0.3,0.2,0.5c-0.1-0.1-0.1-0.3-0.1-0.5c0,0.2,0,0.4,0.1,0.5c0-0.2,0-0.3,0-0.5
				c0-0.5-0.2-1-0.6-1.4c-0.2-0.2-0.4-0.3-0.6-0.4c-0.2-0.1-0.5-0.2-0.8-0.2c-0.2,0-0.4,0-0.5,0.1c-0.3,0.1-0.6,0.3-0.9,0.5
				c-0.4,0.4-0.6,0.9-0.6,1.4c0,0.4,0,0.8,0.1,1.2c0.1,0.3,0.2,0.5,0.3,0.8c0.1,0.2,0.3,0.5,0.5,0.7s0.4,0.4,0.6,0.5
				c0.2,0.1,0.5,0.3,0.7,0.3c0.7,0.2,1.4,0.1,2-0.2c0.4-0.2,0.8-0.6,1-1c0.2-0.5,0.4-0.9,0.4-1.5c0-0.5-0.1-1-0.4-1.4
				c-0.2-0.4-0.6-0.7-1-1c-0.2-0.1-0.5-0.2-0.7-0.3c-0.3-0.1-0.5-0.2-0.8-0.3c0.2,0.1,0.3,0.1,0.5,0.2c-0.1-0.1-0.3-0.1-0.4-0.2
				c-0.2-0.1-0.5-0.2-0.7-0.2c-0.3-0.1-0.5,0-0.8,0c-0.3,0.1-0.5,0.2-0.7,0.4c-0.2,0.1-0.4,0.3-0.5,0.6c-0.2,0.5-0.4,1-0.2,1.5
				c0.1,0.2,0.1,0.3,0.2,0.5C249.8,184.1,250.1,184.3,250.4,184.5L250.4,184.5z"/>
		</g>
	</g>
	<g>
		<g>
			<path d="M26.8,495.5c1.7,10.6,3.1,20.6,4.1,31.3c0.6,6.5,1,13.1,1.2,19.6c0.2,5.9,0.3,11.8,0.6,17.7c0.2,3.2,0.4,6.4,0.7,9.7
				c0.7,7.3,1.6,14.6,2.8,21.9c1.4,9.1,3.3,18.2,5.6,27.1c2.5,9.3,5.6,18.6,9.8,27.3c2.2,4.6,4.8,9.1,8.2,12.9c3.1,3.4,6.9,6,11,8
				c9.7,4.7,20.3,7.4,31.1,7.7c10.9,0.3,21.8-2.1,31.8-6.4c1.5-0.6,3-1.3,4.5-2.1c1.2-0.6,1.5-2.3,0.9-3.4c-0.7-1.2-2.2-1.5-3.4-0.9
				c-1.5,0.8-3,1.5-4.5,2.1c-0.4,0.2,0.3-0.1-0.2,0.1c-0.2,0.1-0.4,0.2-0.7,0.3c-0.5,0.2-1,0.4-1.5,0.6c-1.1,0.4-2.1,0.8-3.2,1.1
				c-4.9,1.6-10.2,2.8-15.2,3.3c-10.7,1-21.2-0.5-31.2-4.3c-4.7-1.8-9.8-3.9-13.5-7.3c-3.2-2.9-5.5-6.2-7.6-10
				c-1.1-1.9-2.1-3.9-3-5.9c-0.5-1-0.9-2.1-1.4-3.2c0-0.1-0.2-0.4,0-0.1c0-0.1-0.1-0.2-0.1-0.3c-0.1-0.3-0.2-0.5-0.3-0.8
				c-0.2-0.6-0.5-1.1-0.7-1.7c-1.7-4.4-3.3-9-4.6-13.5c-2.6-8.9-4.6-18-6.2-27.2c-0.4-2.1-0.7-4.2-1-6.3c-0.1-1-0.3-2-0.4-2.9
				c-0.1-0.5-0.1-1-0.2-1.4c0-0.2-0.1-0.5-0.1-0.7c0-0.1-0.1-0.9-0.1-0.6c0,0.3,0-0.4-0.1-0.5c0-0.2-0.1-0.5-0.1-0.7
				c-0.1-0.5-0.1-1-0.2-1.4c-0.1-0.9-0.2-1.8-0.3-2.7c-0.2-1.6-0.4-3.3-0.5-4.9c-0.4-4-0.8-8.1-1-12.1c-0.3-4.9-0.4-9.9-0.5-14.8
				c-0.2-6.2-0.4-12.3-0.9-18.4c-0.7-9.4-2-18.7-3.3-28.1c-0.5-3.1-0.9-6.2-1.4-9.3c-0.2-1.3-1.9-2.1-3.1-1.7
				C27.1,492.8,26.5,494.2,26.8,495.5L26.8,495.5z"/>
		</g>
	</g>
	<g>
		<g>
			<path d="M163.4,372.9c0.8,3.7,0.8,7.4,0,11.1c-1,4.1-2.7,8.1-4.3,12c-3.2,8.1-6.5,16.2-9.9,24.2c-6.8,16.1-14,32.1-21.6,47.9
				c-7.7,16-16.1,31.5-24.1,47.3c-7.8,15.4-15.1,31.1-21.1,47.3c-5.9,15.9-10.7,32.2-13.4,48.9c-0.3,2.1-0.6,4.1-0.9,6.2
				c-0.2,1.3,0.3,2.7,1.7,3.1c1.2,0.3,2.9-0.4,3.1-1.7c2.3-16.9,6.6-33.5,12.3-49.6c5.8-16.3,12.9-32.1,20.6-47.5
				c7.9-15.8,16.4-31.3,24.1-47.2c7.7-15.9,15-32,22-48.3c3.5-8.2,6.9-16.4,10.2-24.7c3.1-7.7,7.2-15.6,6.9-24.1
				c-0.1-2.1-0.4-4.2-0.8-6.2c-0.3-1.3-1.8-2.1-3.1-1.7C163.7,370.2,163.1,371.5,163.4,372.9L163.4,372.9z"/>
		</g>
	</g>
	<g>
		<g>
			<path d="M180.3,233.7c-5.2,0.5-10.6,1.2-15.1,4.2c-4,2.8-7,6.8-9,11.2c-2.2,4.9-3.5,10.2-4.9,15.5c-1.5,5.5-3,10.9-4.4,16.4
				c-1.5,5.4-3.2,10.9-3.4,16.5c-0.1,2.9,0.4,5.7,1,8.5s1.2,5.6,1.8,8.3c1.2,5.4,2.3,10.9,3.7,16.3c1.4,5.3,3.6,10.3,5.2,15.6
				c1.5,5.2,3.4,10.2,5,15.3c0.8,2.5,1.5,5,2.2,7.5c0.3,1.2,0.5,2.3,0.8,3.5c0.1,0.6,0.2,1.2,0.3,1.8c0,0.3,0.1,0.6,0.1,0.9
				c-0.1-0.4,0.1,0.5,0.1,0.6c0.1,1.3,0.2,2.6,0.3,3.9s1.1,2.6,2.5,2.5c1.3-0.1,2.6-1.1,2.5-2.5c-0.2-5.1-1.2-10.1-2.5-15
				c-1.4-5.1-3.2-10-4.9-15c-0.8-2.5-1.5-5.1-2.4-7.7c-0.8-2.5-1.8-4.9-2.7-7.4c-1.8-5.1-2.9-10.4-4.1-15.7
				c-1.2-5.4-2.6-10.9-3.6-16.4c0-0.3-0.1-0.5-0.1-0.8c0-0.2-0.1-0.4-0.1-0.5c0,0.1,0,0.4,0-0.1c-0.1-0.7-0.1-1.4-0.2-2
				c0-1.3,0-2.6,0.2-4c0,0,0.1-0.5,0-0.2c0-0.1,0-0.3,0.1-0.4c0-0.3,0.1-0.6,0.2-1c0.1-0.7,0.3-1.4,0.4-2c0.3-1.4,0.6-2.7,1-4
				c1.4-5.3,2.9-10.6,4.3-15.9c1.4-5.2,2.7-10.4,4.3-15.5c0.4-1.2,0.8-2.4,1.3-3.6c0.1-0.2,0.1-0.3,0.2-0.5c0,0.1-0.1,0.3,0,0
				s0.2-0.6,0.4-0.8c0.3-0.6,0.6-1.1,0.9-1.7c0.5-1,1.1-1.9,1.7-2.8c0.2-0.2,0.4-0.5,0.5-0.7c-0.3,0.3,0.2-0.2,0.2-0.3
				c0.4-0.4,0.7-0.9,1.1-1.3c0.4-0.4,0.7-0.7,1.1-1.1c0.2-0.2,0.4-0.3,0.6-0.5c0.1-0.1,0.2-0.1,0.3-0.2c-0.3,0.3,0,0,0.1-0.1
				c0.9-0.6,1.8-1.2,2.8-1.7c0.2-0.1,0.3-0.1,0.5-0.2c-0.1,0-0.3,0.1,0,0s0.6-0.2,0.8-0.3c0.6-0.2,1.3-0.4,2-0.6
				c1.2-0.3,2.4-0.5,3.7-0.7c0.3,0,0,0,0,0c0.2,0,0.3,0,0.5-0.1c0.3,0,0.6-0.1,0.9-0.1c0.6-0.1,1.3-0.1,1.9-0.2
				c1.3-0.1,2.6-1.1,2.5-2.5C182.7,235,181.7,233.6,180.3,233.7L180.3,233.7z"/>
		</g>
	</g>
	<g>
		<g>
			<path d="M211,237.4c-0.4-2.6-1-5.3-2.4-7.6c-1.7-2.7-4.3-4.3-7.3-5.3c-4.7-1.6-10.4-1.5-14.8,1c-2.4,1.4-4.3,3.5-5.5,6
				c-1.3,2.6-2,5.5-3,8.2c-0.5,1.4-1,2.8-1.6,4.2c-0.1,0.3-0.3,0.6-0.4,1c0,0.1-0.2,0.6-0.1,0.1c-0.1,0.1-0.1,0.3-0.2,0.4
				c-0.3,0.7-0.6,1.4-0.9,2.1c-1.2,2.7-2.6,5.4-4,8.1c-1.5,2.9-3.2,5.8-4.8,8.7c-1.7,2.9-3.7,5.8-4.2,9.2c-0.1,0.7-0.1,1.3,0.3,1.9
				c0.3,0.5,0.9,1,1.5,1.1c1.2,0.3,2.9-0.4,3.1-1.7c0.1-0.6,0.2-1.3,0.4-1.9c0.1-0.3,0.2-0.6,0.3-0.9c0.1-0.4-0.3,0.5,0.1-0.1
				c0.1-0.2,0.2-0.3,0.2-0.5c0.6-1.2,1.3-2.4,2-3.6c1.5-2.5,2.9-4.9,4.2-7.5c2.7-5.1,5.2-10.3,7.4-15.6c1-2.6,2-5.2,2.8-7.9
				c0.2-0.6,0.4-1.2,0.6-1.8c0.1-0.3,0.2-0.5,0.3-0.8c-0.2,0.5,0,0,0-0.1c0.1-0.2,0.1-0.3,0.2-0.5c0.3-0.6,0.6-1.1,0.9-1.6
				c0.1-0.1,0.2-0.2,0.2-0.3c0.4-0.5-0.2,0.2,0.1-0.1c0.2-0.2,0.4-0.5,0.7-0.7c0.2-0.2,0.3-0.3,0.5-0.5c0.1,0,0.2-0.2,0.3-0.2
				c-0.5,0.2-0.2,0.2,0,0c0.4-0.3,0.9-0.6,1.4-0.8c0.1-0.1,0.2-0.1,0.3-0.2c0,0,0.6-0.2,0.2-0.1c-0.4,0.1,0.1-0.1,0.2-0.1
				c0.1,0,0.2-0.1,0.3-0.1c0.5-0.2,1.1-0.3,1.6-0.4c0.3-0.1,0.5-0.1,0.8-0.1c0.2,0,0.3,0.1-0.1,0c0.1,0,0.2,0,0.4,0
				c0.6-0.1,1.2-0.1,1.8-0.1c0.5,0,1.1,0,1.6,0.1c0.1,0,0.2,0,0.4,0s0.2,0.1-0.1,0c0.3,0.1,0.6,0.1,0.9,0.2c0.6,0.1,1.2,0.3,1.8,0.5
				c0.3,0.1,0.6,0.2,0.9,0.3c0.2,0.1,0.3,0.1,0.5,0.2c-0.4-0.2,0,0,0.2,0.1c0.6,0.3,1.2,0.7,1.8,1c-0.4-0.3-0.1-0.1,0,0
				c0.2,0.1,0.3,0.3,0.5,0.4c0.2,0.2,0.5,0.5,0.6,0.7c-0.3-0.5-0.1-0.1,0,0c0.1,0.2,0.2,0.3,0.3,0.5c0.2,0.3,0.3,0.6,0.5,0.9
				c0.1,0.1,0.2,0.4,0-0.1c0.1,0.2,0.1,0.4,0.2,0.5c0.1,0.3,0.2,0.6,0.3,0.9c0.4,1.3,0.6,2.7,0.8,4s1.9,2.1,3.1,1.7
				C210.6,240,211.2,238.7,211,237.4L211,237.4z"/>
		</g>
	</g>
	<g>
		<g>
			<path d="M245.5,258c-1.8-2.8-3.6-5.5-5.4-8.3c-1.7-2.6-3.4-5.3-5.4-7.7c-3.7-4.8-8.8-8.6-14.9-9.3c-3.1-0.4-6.2,0.4-9.1,1.5
				c-1.4,0.6-2.9,1.2-4.2,2.1c-1.4,1-2.5,2.3-3.4,3.7c-3.1,5-5.8,10.2-8.8,15.2c-1.7,2.8-3.5,5.6-5.4,8.4c-0.5,0.7-0.9,1.3-1.4,2
				c-0.2,0.3-0.5,0.6-0.7,1c-0.1,0.1-0.4,0.5-0.1,0.1c-0.1,0.2-0.3,0.3-0.4,0.5c-1.1,1.3-2.1,2.6-3.3,3.9c-0.9,1-1,2.6,0,3.5
				s2.6,1,3.5,0c7.7-8.6,13.2-18.8,18.9-28.7c0.7-1.2,1.4-2.5,2.1-3.6c0.2-0.3,0.3-0.5,0.5-0.8c-0.3,0.4,0,0,0.1-0.1
				s0.2-0.3,0.4-0.4c0.1-0.1,0.7-0.6,0.3-0.3c0.3-0.3,0.7-0.5,1.1-0.7c0.6-0.3,1.2-0.6,1.8-0.9c0.4-0.2,0.1-0.1,0,0
				c0.2-0.1,0.4-0.2,0.6-0.3c0.4-0.1,0.7-0.3,1.1-0.4c0.6-0.2,1.3-0.4,2-0.6c0.4-0.1,0.7-0.2,1.1-0.2c0.5-0.1,0.1,0,0,0
				c0.2,0,0.4,0,0.7-0.1c0.7,0,1.4,0,2,0c0.2,0,0.3,0,0.5,0.1c-0.1,0-0.5-0.1-0.1,0s0.7,0.1,1.1,0.2c0.6,0.2,1.2,0.4,1.8,0.6
				c0.1,0,0.4,0.2,0,0c0.1,0.1,0.3,0.1,0.4,0.2c0.4,0.2,0.7,0.4,1.1,0.6c0.5,0.3,1.1,0.6,1.6,1c0.3,0.2,0.6,0.4,0.8,0.6
				c-0.1-0.1-0.4-0.3,0,0c0.2,0.1,0.3,0.3,0.5,0.4c1.1,0.9,2,1.9,2.9,2.9c0.3,0.3,0.6,0.7,0.8,1c0.1,0.1,0.2,0.2,0.3,0.3
				c0.5,0.6-0.3-0.4,0.1,0.2c0.5,0.6,1,1.3,1.4,2c0.9,1.3,1.7,2.6,2.6,3.9c2,3,4,6.1,5.9,9.1c0.7,1.1,2.2,1.7,3.4,0.9
				C245.6,260.7,246.2,259.1,245.5,258L245.5,258z"/>
		</g>
	</g>
	<g>
		<g>
			<path d="M240.7,260.5c0.1,0.1,0.2,0.4,0.3,0.4c-0.2-0.1-0.1-0.4-0.1-0.1c0,0.1,0,0.2,0.1,0.2c0,0,0,0.2,0.1,0.2c0,0,0-0.5,0-0.3
				s0,0.5,0,0.7c0,0.3,0-0.2,0-0.3c0,0.1,0,0.2,0,0.2c0,0.2-0.1,0.4-0.2,0.6c-0.1,0.4,0.2-0.4,0,0c-0.1,0.2-0.2,0.4-0.3,0.6
				c0,0.1-0.1,0.1-0.1,0.2c-0.1,0.2,0.1-0.1,0.1-0.2c-0.1,0.1-0.3,0.4-0.4,0.5c-0.1,0.1-0.3,0.2-0.4,0.4c-0.2,0.2,0.2-0.1,0.2-0.1
				c-0.1,0.1-0.3,0.2-0.4,0.3c-0.2,0.1-0.3,0.2-0.5,0.3c-0.1,0.1-0.8,0.3-0.2,0.1c-0.4,0.2-0.9,0.3-1.4,0.4
				c-0.4,0.1-0.8,0.2-1.2,0.3c-0.1,0-0.3,0.1-0.4,0.1c0,0,0.4-0.1,0.1,0c-0.2,0-0.5,0.1-0.7,0.1c-1,0.1-2,0.2-3,0.1
				c-0.3,0-0.5,0-0.8,0c-0.2,0-0.7-0.1-0.3,0c-0.5-0.1-1-0.2-1.5-0.4c-0.5-0.2,0.3,0.1-0.2-0.1c-0.2-0.1-0.4-0.2-0.7-0.3
				c-0.4-0.2-0.8-0.5-1.3-0.8s-0.9-0.6-1.3-1c0,0-0.3-0.2-0.1-0.1s-0.2-0.1-0.2-0.2c-0.2-0.2-0.5-0.4-0.7-0.6
				c-0.9-0.8-1.8-1.6-2.7-2.4c-0.9-0.9-2.6-1-3.5,0s-1,2.6,0,3.5c1.8,1.7,3.8,3.4,5.9,4.8c2.2,1.5,4.5,2.4,7.2,2.5
				c2.3,0.1,4.8-0.2,7.1-0.8c2.4-0.7,4.5-2,5.8-4.1c1.4-2.2,1.7-5.2,0.3-7.5c-0.7-1.1-2.3-1.6-3.4-0.9
				C240.5,257.8,239.9,259.4,240.7,260.5L240.7,260.5z"/>
		</g>
	</g>
	<g>
		<g>
			<path d="M220,261.8c-2.8,2.2-4.6,5.6-6.4,8.7c-2,3.2-3.8,6.5-5.6,9.8c-0.6,1.2-0.3,2.8,0.9,3.4s2.8,0.3,3.4-0.9
				c1.8-3.3,3.6-6.5,5.5-9.6c0.9-1.5,1.8-3.1,2.8-4.5c0.2-0.3,0.4-0.7,0.7-1c0.1-0.2,0.3-0.4,0.1-0.1c0.1-0.2,0.3-0.3,0.4-0.5
				c0.6-0.7,1.2-1.3,1.8-1.8c1-0.8,0.9-2.7,0-3.5C222.5,260.8,221.1,260.9,220,261.8L220,261.8z"/>
		</g>
	</g>
	<g>
		<g>
			<path d="M228.8,306.7c0.2,1.8,0.9,3.5,2.2,4.9s3.1,2.1,5,2.3c1.7,0.1,3.6-0.4,5-1.4s2.4-2.3,3.4-3.6c0.1-0.1,0.2-0.3,0.3-0.4
				c0.2-0.3-0.4,0.5,0,0c0.2-0.2,0.4-0.5,0.6-0.7c0.6-0.7,1.3-1.2,1.9-1.8c1.2-1,2.5-1.9,3.7-3c1.3-1.2,2.3-2.7,2.9-4.3
				c0.6-1.6,0.5-3.4,0.3-5.1c-0.2-1.5-0.6-2.9-0.9-4.4c-0.3-1.8-0.6-3.6-0.9-5.4c-0.3-1.8-0.6-3.6-0.9-5.4c-0.2-1.5-0.5-2.9-1-4.3
				c-0.6-1.6-1.4-3.2-2.7-4.3c-1.3-1.1-2.9-1.9-4.5-2.3c-3.4-0.8-7.1-0.1-10.4,1c-3.7,1.3-7.2,2.9-10.8,4.5
				c-0.5,0.2-0.9,0.4-1.4,0.6c-0.1,0-0.4,0.2-0.1,0c-0.3,0.1-0.6,0.2-0.9,0.4c-0.9,0.4-1.7,0.7-2.6,1.1c-1.8,0.7-3.6,1.4-5.4,1.9
				c-1.2,0.4-2.2,1.8-1.7,3.1c0.4,1.3,1.7,2.2,3.1,1.7c2.9-0.9,5.8-2.1,8.7-3.2c1.6-0.7,3.1-1.3,4.7-2c0.7-0.3,1.4-0.6,2.1-0.9
				c0.2-0.1,0.4-0.2,0.5-0.2s0.6-0.2,0.1-0.1c0.4-0.2,0.8-0.3,1.2-0.5c1.4-0.6,2.8-1.2,4.2-1.6c0.7-0.2,1.4-0.4,2.1-0.6
				c0.4-0.1,0.8-0.2,1.1-0.2c0.2,0,0.3-0.1,0.5-0.1c-0.5,0.1,0.3,0,0.4,0c0.7-0.1,1.4-0.1,2-0.1c0.2,0,0.3,0,0.5,0
				c0.4,0-0.6-0.1,0,0c0.4,0.1,0.7,0.1,1.1,0.2c0.3,0.1,0.6,0.1,0.8,0.3c-0.5-0.3,0,0,0.1,0.1s0.2,0.1,0.3,0.2s0.3,0.2,0.4,0.3
				c0,0,0.1,0,0.1,0.1c0.2,0.2,0.2,0.1,0,0c0.2,0,0.6,0.6,0.8,0.8c0.3,0.3-0.3-0.5,0,0c0.1,0.1,0.1,0.2,0.2,0.3
				c0.2,0.3,0.3,0.6,0.5,0.9c0.3,0.6-0.1-0.3,0,0c0.1,0.2,0.1,0.3,0.2,0.5c0.1,0.3,0.2,0.7,0.3,1c0.4,1.4,0.6,2.8,0.8,4.2
				c0.6,3.3,1.1,6.5,1.7,9.8c0.2,1.3,0.6,2.7,0.8,4c0,0.1,0.1,0.4,0,0c0,0.2,0,0.3,0,0.5c0,0.3,0,0.6,0,0.9c0,0.2,0,0.4,0,0.6
				c0-0.1,0.1-0.5,0-0.1c0,0.2-0.1,0.3-0.1,0.5c0,0.1-0.1,0.2-0.1,0.3c0.1-0.3,0.1-0.3,0,0c-0.2,0.3-0.3,0.5-0.5,0.8
				c-0.1,0.1-0.2,0.3-0.3,0.4c0.3-0.4,0.1-0.1,0,0c-0.5,0.6-1,1.1-1.6,1.6c-1.1,1-2.3,1.8-3.4,2.8c-1.3,1.1-2.3,2.3-3.3,3.7
				c-0.1,0.2-0.2,0.3-0.3,0.5c0.3-0.3,0.1-0.1-0.1,0.1c-0.2,0.3-0.4,0.5-0.7,0.8c-0.1,0.1-0.7,0.7-0.7,0.7c0.1,0,0.4-0.3,0,0
				c-0.2,0.1-0.4,0.2-0.6,0.3c-0.2,0.1-0.4,0.1,0,0c-0.2,0-0.4,0.1-0.6,0.2c-0.1,0-0.1,0-0.2,0c-0.3,0-0.3,0,0.1,0
				c-0.1,0.1-0.5,0-0.6,0s-0.3,0-0.4,0c0.3,0.1,0.4,0.1,0.1,0c-0.1,0-0.2,0-0.3-0.1c-0.2,0-0.3-0.1-0.5-0.2c0.5,0.1,0,0-0.1-0.1
				s-0.3-0.2-0.4-0.2c-0.1-0.1-0.1-0.1,0.1,0.1c-0.1-0.1-0.2-0.2-0.3-0.2c-0.1-0.1-0.2-0.2-0.3-0.3c-0.4-0.4,0.2,0.4-0.1-0.1
				c-0.1-0.2-0.2-0.3-0.3-0.5c0-0.1-0.1-0.1-0.1-0.2c-0.1-0.3-0.1-0.2,0,0.1c0,0-0.3-1.5-0.2-0.6c-0.1-1.3-1-2.6-2.5-2.5
				C230.1,304.3,228.6,305.3,228.8,306.7L228.8,306.7z"/>
		</g>
	</g>
	<g>
		<g>
			<path d="M234,289.8c0.5-0.7-0.1,0-0.2,0.2c-0.2,0.2-0.4,0.4-0.7,0.6c-0.5,0.5-1.1,1.1-1.5,1.8c-0.9,1.4-1.5,3.1-1.9,4.7
				c-0.9,3.3-1,6.7-0.4,10c0.2,1.3,1.9,2.1,3.1,1.7c1.4-0.4,2-1.7,1.7-3.1c0-0.2-0.1-0.4-0.1-0.5c0-0.2-0.1-0.4,0-0.1
				c0-0.4-0.1-0.7-0.1-1.1c0-0.7-0.1-1.4,0-2.2c0-0.3,0-0.6,0.1-1c0-0.2,0.1-0.4,0-0.1c0-0.2,0.1-0.4,0.1-0.5
				c0.1-0.7,0.3-1.4,0.5-2.1c0.1-0.3,0.2-0.6,0.3-0.9c0.1-0.2,0.1-0.3,0.2-0.5c0.1-0.2,0.2-0.4,0-0.1c0.1-0.3,0.3-0.7,0.5-1
				c0-0.1,0.4-0.9,0.5-0.9c-0.1,0-0.3,0.4,0,0c0.1-0.1,0.2-0.2,0.3-0.3c0.2-0.2,0.4-0.4,0.6-0.6c0.5-0.5,0.9-0.9,1.3-1.5
				c0.8-1.1,0.2-2.8-0.9-3.4C236.1,288.2,234.8,288.6,234,289.8L234,289.8z"/>
		</g>
	</g>
	<g>
		<g>
			<path d="M233.5,290.5c-2,0.3-3.9,1.1-5.6,2.2c-1.6,1-3.1,2.2-4.7,3.3c-1.1,0.7-1.6,2.2-0.9,3.4c1.3,2.3,2.6,4.6,3.7,7
				c0.3,0.7,0.6,1.3,0.9,2c0,0.1,0.1,0.2,0.1,0.3c0.2,0.4-0.3-0.6-0.1-0.2c0.1,0.2,0.1,0.3,0.2,0.5c0.2,0.4,0.3,0.9,0.5,1.3
				c1.7,4.3,3,8.7,4.1,13.2c1.6,6.2,3.1,12.4,4.5,18.7c0.4,1.7,0.7,3.5,1,5.3c0.1,0.4-0.1-0.8,0,0c0,0.2,0.1,0.5,0.1,0.7
				c0,0.4,0.1,0.8,0.1,1.2c0.1,1,0.2,2,0.2,3c0.1,1.9,0.2,3.8,0.2,5.7c0,4.3-0.3,8.7-0.6,13c-0.1,1-0.2,2.1-0.3,3.1
				c0,0.1-0.1,0.8,0,0.2c0,0.3-0.1,0.6-0.1,0.9c-0.1,0.4-0.1,0.8-0.2,1.3c-0.3,1.6-0.6,3.1-1,4.6c-0.3,1.3,0.4,2.8,1.7,3.1
				c1.3,0.3,2.8-0.4,3.1-1.7c0.7-3.2,1.4-6.4,1.7-9.7c0.3-3.9,0.6-7.8,0.7-11.8c0.2-6.2-0.1-12.5-1.4-18.6c-1.2-6-2.7-12.1-4.2-18
				c-1.2-4.9-2.6-9.7-4.4-14.5c-1.7-4.5-3.8-8.9-6.2-13c-0.3,1.1-0.6,2.3-0.9,3.4c1.6-1,3-2.2,4.6-3.2c0.4-0.2,0.7-0.4,1.1-0.7
				c0.2-0.1,0.3-0.2,0.5-0.3c0.1-0.1,0.2-0.1,0.3-0.2c0.3-0.1,0.2-0.1-0.1,0c0.1-0.2,1.1-0.4,1.3-0.4c0.5-0.1,0.9-0.2,1.4-0.3
				c1.3-0.2,2.1-1.9,1.7-3.1C236.1,290.8,234.9,290.3,233.5,290.5L233.5,290.5z"/>
		</g>
	</g>
	<g>
		<g>
			<path d="M234.5,381.5c-7.2,19.4-12.7,39.4-17.3,59.5s-8.2,40.4-12,60.7c-3.7,20.3-7.5,40.5-12.2,60.6
				c-4.8,20.3-10.2,40.9-19.2,59.8c-4.3,9-9.5,17.3-15.1,25.5c-4.7,6.9-10.9,12-18.2,16c-2.1,1.1-4.2,2.2-6.4,3.1
				c-1.2,0.5-2.1,1.7-1.7,3.1c0.3,1.2,1.8,2.3,3.1,1.7c7.9-3.3,15.7-7.8,21.8-14c3.2-3.3,5.7-7.1,8.3-10.9c2.9-4.3,5.7-8.7,8.2-13.3
				c10.3-18.6,16.4-39.1,21.7-59.6c5.2-20.3,9.2-40.9,13-61.5c3.8-20.5,7.4-41.1,11.8-61.6c4.4-20.5,9.6-40.8,16.5-60.6
				c0.8-2.4,1.7-4.8,2.6-7.2c0.5-1.3-0.5-2.7-1.7-3.1C236.2,379.3,235,380.2,234.5,381.5L234.5,381.5z"/>
		</g>
	</g>
	<g>
		<g>
			<path d="M264,297.4c-1.4,9.3-3.7,18.4-4.2,27.8c-0.1,2.6-0.1,5.3,0,7.9c0.1,1.3,1.1,2.6,2.5,2.5c1.3-0.1,2.6-1.1,2.5-2.5
				c-0.3-4.5-0.1-9.1,0.5-13.6c0-0.3,0.1-0.6,0.1-0.8c0-0.1,0.1-0.6,0-0.3c0,0.3,0-0.1,0-0.1c0.1-0.6,0.2-1.2,0.3-1.8
				c0.2-1.1,0.4-2.3,0.6-3.4c0.4-2.2,0.8-4.5,1.2-6.7c0.5-2.5,0.9-5.1,1.3-7.7c0.2-1.3-0.3-2.8-1.7-3.1
				C265.9,295.3,264.2,296,264,297.4L264,297.4z"/>
		</g>
	</g>
	<g>
		<g>
			<path d="M261.6,332c1.7,0.5,3.3,1.1,5,1.8c0.8,0.3,1.6,0.7,2.5,1c0,0-0.6-0.2-0.2-0.1c0.1,0,0.2,0.1,0.3,0.1
				c0.2,0.1,0.4,0.2,0.6,0.2c0.4,0.2,0.8,0.4,1.2,0.5c3.6,1.6,7.3,3.2,11,4.6c10,3.7,20.5,5.8,31,7.8c8,1.5,16,2.8,23.9,4.8
				c3.9,1,7.7,2.1,11.4,3.4c1.8,0.6,3.6,1.3,5.4,2c0.9,0.4,1.9,0.7,2.8,1.1c0.3,0.1,0.5,0.2,0.8,0.3c-0.1,0-0.5-0.2-0.1,0
				c0.1,0,0.2,0.1,0.3,0.1c0.5,0.2,1.1,0.5,1.6,0.7c9.7,4.3,19,9.6,27.7,15.6c1.2,0.9,2.5,1.8,3.7,2.7c1.1,0.8,2.8,0.2,3.4-0.9
				c0.7-1.3,0.2-2.6-0.9-3.4c-8.9-6.5-18.4-12.3-28.4-16.9c-7.6-3.6-15.5-6.6-23.6-8.8c-7.6-2.1-15.4-3.4-23.1-4.8
				c-10.6-2-21.3-3.9-31.5-7.3c-2-0.7-4-1.4-6-2.2c-0.4-0.2-0.9-0.4-1.3-0.5c-0.2-0.1-0.4-0.2-0.6-0.3c-0.2-0.1-1-0.4-0.3-0.1
				c-0.8-0.4-1.7-0.7-2.5-1.1c-3.4-1.5-6.7-3-10.2-4.2c-0.8-0.3-1.6-0.6-2.5-0.8c-1.2-0.4-2.8,0.5-3.1,1.7
				C259.5,330.3,260.2,331.6,261.6,332L261.6,332z"/>
		</g>
	</g>
	<g>
		<g>
			<path d="M356.4,459.9c-2.1,4.2-3.1,8.8-3.8,13.4c-0.4,2.3-0.7,4.6-1,6.8c-0.2,1.3-0.4,2.7-0.5,4c0-0.4,0,0.3,0,0.3
				c-0.1,0,0.2-0.7,0.1-0.5c0,0.1,0,0.2-0.1,0.2c-0.1,0.4,0-0.1,0.1-0.3c-0.1,0.1-0.1,0.3-0.2,0.4c-1.2,2.5-3.1,4.7-4.1,7.3
				c-0.2,0.5-0.3,1.1-0.3,1.6c0.1,1.3,0.4,2.6,0.7,3.8c0.5,1.9,1.1,3.8,1.8,5.6c1.6,4.2,3.2,8.3,4,12.8c0.2,1.3,1.9,2.1,3.1,1.7
				c1.4-0.5,2-1.7,1.7-3.1c-0.7-3.9-2-7.6-3.4-11.3c-0.7-1.7-1.3-3.5-1.9-5.3c-0.3-1-0.6-2-0.8-3c-0.1-0.5-0.2-1.1-0.3-1.7
				c-0.1-0.4,0,0.5,0,0.2s-0.2,0.8,0,0.3c0-0.1,0.1-0.2,0.1-0.3c0.1-0.5-0.2,0.4-0.1,0.2c0.1-0.2,0.2-0.5,0.4-0.7
				c0.3-0.6,0.6-1.1,1-1.7c0.7-1.2,1.5-2.3,2.1-3.5c0.3-0.6,0.6-1.2,0.8-1.8c0.3-0.8,0.2-1.7,0.3-2.6c0-0.2,0-0.3,0.1-0.5
				c0-0.1,0.1-0.5,0-0.1c0-0.3,0.1-0.6,0.1-0.8c0.1-0.6,0.2-1.1,0.3-1.7c0.2-1.1,0.3-2.2,0.5-3.4c0.4-2.5,0.8-5,1.3-7.5
				c0.3-1.2,0.6-2.3,1-3.5c0.2-0.6,0.4-1.2,0.6-1.7c0-0.1,0.2-0.4,0,0c0.1-0.1,0.1-0.3,0.2-0.4c0.2-0.3,0.3-0.7,0.5-1
				c0.6-1.2,0.3-2.8-0.9-3.4C358.7,458.4,357,458.7,356.4,459.9L356.4,459.9z"/>
		</g>
	</g>
	<g>
		<g>
			<path d="M342.6,461.6c1.4,4.2,2.4,8.5,3.1,12.8c0.1,0.5,0.2,1.1,0.2,1.6c0,0.2,0,0.3,0.1,0.5c0,0,0-0.4,0-0.1s0.1,0.6,0.1,0.9
				c0.1,1.1,0.2,2.2,0.3,3.4c0.2,2.2,0.3,4.4,0.3,6.7c0,2.5-0.1,5.1-0.3,7.6c-0.1,1.3,1.2,2.6,2.5,2.5c1.4-0.1,2.4-1.1,2.5-2.5
				c0.8-9.1,0.1-18.4-2-27.3c-0.6-2.5-1.3-4.9-2.1-7.3c-0.4-1.2-1.7-2.2-3.1-1.7C343.2,458.9,342.2,460.2,342.6,461.6L342.6,461.6z"
				/>
		</g>
	</g>
	<g>
		<g>
			<path d="M111.6,477.2c1,2.5,1.7,5.1,2.1,7.8c0,0.1,0,0.3,0.1,0.4c0.1,0.4,0-0.4,0,0c0,0.3,0.1,0.7,0.1,1c0.1,0.7,0.1,1.4,0.2,2
				c0.1,1.4,0.1,2.7,0.1,4.1c0,1.3,1.1,2.6,2.5,2.5s2.5-1.1,2.5-2.5c0-5.6-0.6-11.4-2.8-16.7c-0.3-0.6-0.5-1.1-1.1-1.5
				c-0.5-0.3-1.3-0.4-1.9-0.3C112.2,474.5,111.1,475.9,111.6,477.2L111.6,477.2z"/>
		</g>
	</g>
	<g>
		<g>
			<path d="M442.1,481.5c7.3,30,12.1,60.5,14.9,91.3c1.4,15.2,2.5,30.5,3.5,45.8c0.6,8,1.5,16.1,1.4,24.2
				c-0.1,7.3-1.3,14.5-3.9,21.3c-5,12.9-15.4,21.7-27.7,27.5c-13.6,6.3-28.5,8.6-43.4,9.7c-17.1,1.3-34.3,1.4-51.4,0.5
				s-34.2-2.7-51.4-3.5c-8.5-0.4-17-0.7-25.6-0.7c-4.3,0-8.6,0.3-12.8,0.2c-3.6-0.1-7.1-0.5-10.7-0.4c-16.1,0.3-32.1,0.5-48.2,0.8
				c-3.9,0.1-7.7,0.2-11.6,0.3c-3.2,0.1-3.2,5.1,0,5c16.3-0.5,32.7-0.5,49-0.8c4-0.1,8-0.3,11.9-0.2c3.6,0,7.2,0.4,10.7,0.5
				c8.7,0,17.3-0.2,26,0c17.4,0.5,34.8,2,52.1,3.3c17.4,1.3,34.8,1.7,52.3,0.8c15.8-0.8,31.7-2.2,46.7-7.5
				c13-4.6,25.5-11.9,33.3-23.5c4.2-6.3,6.9-13.5,8.3-20.9c1.4-7.6,1.2-15.1,0.7-22.8c-1.1-16.1-2.2-32.2-3.5-48.3
				c-2.5-30.7-6.5-61.2-13.2-91.3c-0.9-4.1-1.9-8.2-2.9-12.3C446.2,477,441.4,478.4,442.1,481.5L442.1,481.5z"/>
		</g>
	</g>
	<g>
		<g>
			<path d="M414.9,640.2c-8.4-11.9-20.6-21.1-34.7-25.1c-3.5-1-7.1-1.7-10.8-2c-4.3-0.3-8.8-0.2-13.1-0.1
				c-8.8,0.2-17.5,0.7-26.2,1.5c-17.4,1.6-34.6,4.4-51.8,7.5c-17.2,3.1-34.3,6.5-51.6,9.3c-8.7,1.5-17.5,2.8-26.3,3.9
				c-9.1,1.1-18.1,2.2-27.3,2.5c-2.2,0.1-4.5,0.1-6.7,0c-3.2-0.1-3.2,4.9,0,5c8.9,0.2,17.9-0.6,26.7-1.7c8.9-1,17.7-2.2,26.5-3.6
				c17.2-2.7,34.2-6,51.3-9.1c16.7-3.1,33.5-6,50.4-7.9c8.6-1,17.2-1.7,25.8-2.1c4.3-0.2,8.6-0.3,12.8-0.3c4,0,8.1-0.2,12.1,0.5
				c13.8,2.2,26.4,9.7,35.4,20.3c1.1,1.3,2.1,2.6,3.1,4c0.8,1.1,2.2,1.6,3.4,0.9C415.1,643,415.7,641.3,414.9,640.2L414.9,640.2z"/>
		</g>
	</g>
	<g>
		<g>
			<path d="M52.7,706.2c15.6-0.3,31.3-0.7,46.9-1s31.2-0.7,46.8-1c8.8-0.2,17.6-0.4,26.3-0.6c1.3,0,2.6-1.1,2.5-2.5
				c-0.1-1.3-1.1-2.5-2.5-2.5c-15.6,0.3-31.3,0.7-46.9,1s-31.2,0.7-46.8,1c-8.8,0.2-17.6,0.4-26.3,0.6c-1.3,0-2.6,1.1-2.5,2.5
				C50.3,705,51.3,706.2,52.7,706.2L52.7,706.2z"/>
		</g>
	</g>
	<g>
		<g>
			<path d="M53.7,685.5c-2.3,0.2-4.7,0.2-7,0.2c-1.9-0.1-3.7-0.2-5.6-0.2c-2.4,0-4.8,0.2-7.3,0.3c-1.4,0.1-2.7,0.2-4,0.5
				c-1.2,0.2-2.3,0.7-3.4,1.3c-1,0.5-1.9,1.2-2.6,2.2c-0.9,1.1-1.3,2.5-1.5,3.9c-0.4,3,0.9,6,2.8,8.2c1.8,2.1,4.6,3.1,7.1,3.8
				c2.9,0.8,5.9,0.7,8.9,0.8c1.6,0,3.2,0.2,4.8,0.3c1.7,0,3.4,0,5-0.1c3.4-0.2,6.8-0.3,10.3-0.5c1.3-0.1,2.6-1.1,2.5-2.5
				c-0.1-1.3-1.1-2.6-2.5-2.5c-2.9,0.1-5.7,0.3-8.6,0.4c-2.8,0.1-5.6,0.3-8.5,0.1c-2.6-0.2-5.3-0.1-7.9-0.3c-0.3,0-0.6-0.1-0.9-0.1
				c-0.5-0.1-0.1,0,0,0c-0.2,0-0.3,0-0.5-0.1c-0.7-0.1-1.4-0.3-2-0.5c-0.5-0.2-1-0.3-1.6-0.5c-0.1-0.1-0.3-0.1-0.4-0.2
				c0.1,0,0.5,0.2,0.1,0c-0.3-0.1-0.5-0.2-0.8-0.4c-0.3-0.1-0.5-0.3-0.7-0.5c-0.1-0.1-0.3-0.3,0,0c-0.1-0.1-0.2-0.2-0.3-0.3
				c-0.2-0.2-0.4-0.4-0.6-0.6c-0.3-0.3,0,0,0,0c-0.1-0.2-0.2-0.3-0.3-0.5c-0.1-0.2-0.3-0.5-0.4-0.7c-0.1-0.1-0.4-0.8-0.2-0.3
				c-0.2-0.6-0.5-1.2-0.5-1.8c0,0.6,0,0.2,0,0.1c0-0.2,0-0.3,0-0.5c0-0.1,0-0.3,0-0.4c0-0.1,0.1-0.5,0-0.2s0.1-0.4,0.1-0.5l0.1-0.4
				c0,0-0.3,0.6,0,0.1c0.1-0.2,0.2-0.3,0.3-0.5c0.2-0.3-0.4,0.5-0.1,0.1c0.1-0.1,0.1-0.1,0.2-0.2c0.1-0.1,0.1-0.1,0.2-0.2
				c0.2-0.2,0.2,0-0.2,0.1c0.2-0.1,0.4-0.3,0.6-0.4c0.4-0.2,0.7-0.4,1.1-0.6l0.3-0.1c-0.2,0-0.4,0.2-0.1,0.1
				c0.3-0.1,0.6-0.2,0.9-0.3c0.2-0.1,0.5-0.1,0.7-0.2c0.1,0,0.3,0,0.4-0.1c0.6-0.1-0.4,0,0,0c0.6-0.1,1.2-0.1,1.8-0.2
				c2.3-0.2,4.6-0.3,6.9-0.3c2,0,4,0.1,6,0.1c2.4,0.1,4.9,0,7.3-0.2c1.3-0.1,2.6-1.1,2.5-2.5C56.1,686.7,55.1,685.4,53.7,685.5
				L53.7,685.5z"/>
		</g>
	</g>
	<g>
		<g>
			<path d="M55,669.3c-6.5-0.2-13,0.1-19.5-0.3c-3.5-0.2-6.9-0.6-10.4-0.7c-1.5,0-3,0.1-4.4,0.1c-1.6,0-3.1,0.2-4.6,0.8
				c-2.5,1.2-4.1,4.1-4.5,6.7c-0.2,1.5-0.2,3-0.1,4.5c0.1,1.4,0.2,2.8,0.8,4c1.7,3.6,6.4,4.5,9.9,5c2.2,0.3,4.4,0.4,6.6,0.6
				c0.9,0.1,1.7,0.1,2.6,0.2c0.3,0,0.9,0.2-0.1,0c0.2,0,0.3,0,0.5,0.1c0.3,0.1,0.6,0.1,0.8,0.2c1.2,0.4,2.8-0.5,3.1-1.7
				c0.3-1.4-0.4-2.6-1.7-3.1c-1.3-0.4-2.7-0.5-4.1-0.6c-1.7-0.1-3.4-0.2-5.1-0.4c-0.4,0-0.9-0.1-1.3-0.1c-0.2,0-0.4-0.1-0.7-0.1
				c-0.3,0,0.7,0.1,0.2,0c-0.1,0-0.3,0-0.4-0.1c-0.9-0.1-1.8-0.3-2.6-0.5c-0.4-0.1-0.8-0.2-1.1-0.3c-0.2-0.1-0.4-0.1-0.5-0.2
				c-0.4-0.2,0.6,0.3,0.2,0.1c-0.1,0-0.2-0.1-0.3-0.1c-0.3-0.2-0.6-0.3-0.9-0.5c-0.5-0.3,0.5,0.4,0,0c-0.1-0.1-0.3-0.2-0.4-0.4
				l-0.1-0.1c-0.3-0.3,0.4,0.6,0.2,0.2c-0.1-0.1-0.2-0.2-0.2-0.4c0-0.1-0.1-0.1-0.1-0.2c-0.2-0.3,0.2,0.7,0.1,0.3
				c0-0.2-0.1-0.4-0.1-0.5s-0.1-0.5,0,0.3c0-0.2-0.1-0.4-0.1-0.6c0-0.3-0.1-0.7-0.1-1c-0.1-0.7-0.1-1.3-0.1-2c0-0.1,0-1.6,0.1-1.7
				c0,0-0.1,0.6,0,0c0-0.1,0-0.2,0.1-0.3c0.1-0.3,0.2-0.6,0.3-0.9c0,0,0-0.1,0.1-0.1c0.1-0.3,0.1-0.2-0.1,0.2c0,0,0.1-0.2,0.1-0.3
				c0.1-0.2,0.2-0.5,0.4-0.7c0.3-0.4,0.1,0,0,0l0.2-0.2c0.1-0.1,0.6-0.7,0.7-0.7c-0.1,0-0.5,0.3,0,0l0.3-0.2c0,0.2-0.5,0.2-0.1,0
				c0.1,0,0.3-0.1,0.4-0.1s0.3-0.1,0.4-0.1c0.4-0.1-0.6,0.1-0.1,0c0.4,0,0.7-0.1,1.1-0.1c1.4-0.1,2.8-0.1,4.2-0.1
				c3.2,0,6.4,0.4,9.6,0.6c7,0.5,14,0.1,21,0.4c1.3,0,2.6-1.2,2.5-2.5C57.4,670.4,56.4,669.4,55,669.3L55,669.3z"/>
		</g>
	</g>
	<g>
		<g>
			<path d="M55.3,652.3c-9.6-0.3-19.3-0.5-28.9-0.8c-2.3-0.1-4.6-0.2-6.9-0.3c-2.1-0.1-4.3-0.4-6.5-0.1c-1.8,0.2-3.5,0.7-5,1.9
				c-0.1,0-0.4,0.4-0.4,0.3c-0.1,0,0.5-0.3,0.2-0.2c-0.1,0-0.3,0.1-0.4,0.2c-0.9,0.5-1.3,1.4-1.6,2.3c-0.6,1.9-1.2,3.9-1.4,6
				c-0.2,2.2,0.2,4.7,1.5,6.5c1.9,2.7,4.8,4.1,7.9,5.1c1.2,0.4,2.8-0.5,3.1-1.7c0.3-1.4-0.4-2.6-1.7-3.1c-0.3-0.1-0.7-0.2-1-0.4
				c-0.2-0.1-0.4-0.1-0.6-0.2c0.1,0,0.5,0.2,0.1,0c-0.6-0.3-1.2-0.6-1.7-0.9c-0.2-0.1-0.4-0.3-0.7-0.4c-0.2-0.1-0.1-0.2,0.1,0.1
				c-0.1-0.1-0.2-0.2-0.3-0.3c-0.3-0.3-0.6-0.7-0.9-1c0.5,0.6,0.1,0.1,0-0.1c-0.1-0.2-0.2-0.3-0.3-0.5c0-0.1-0.1-0.3-0.2-0.3
				c0,0,0.2,0.6,0.1,0.3c-0.1-0.2-0.2-0.4-0.2-0.7c0-0.2-0.1-0.4-0.1-0.6c-0.1-0.4,0,0.3,0,0.3c0-0.1,0-0.2,0-0.4c0-0.4,0-0.8,0-1.2
				c0-0.2,0-0.4,0-0.6c0-0.1,0.1-0.3,0-0.4c0.1,0.4-0.1,0.6,0,0.3c0.1-0.5,0.2-0.9,0.3-1.4c0.2-0.9,0.5-1.8,0.7-2.6
				c0.1-0.2,0.1-0.4,0.2-0.6c0.2-0.6-0.3,0.4,0,0c-0.1,0.1-0.5,0.6-0.7,0.7c0.5,0,1.1-0.7,1.4-1c0.4-0.3-0.1,0-0.1,0.1
				c0.1-0.1,0.4-0.2,0.5-0.3l0.3-0.2c-0.1,0-0.2,0.1-0.3,0.1c0.1,0,0.2-0.1,0.3-0.1c0.3-0.1,0.6-0.2,0.9-0.2c0.1,0,0.2,0,0.4-0.1
				c0.5-0.1-0.5,0,0.2,0c2-0.2,4.1,0.1,6.1,0.2c2.2,0.1,4.4,0.2,6.6,0.3c5,0.2,9.9,0.3,14.9,0.4c4.8,0.1,9.6,0.2,14.3,0.4
				c1.3,0,2.6-1.2,2.5-2.5C57.7,653.4,56.7,652.4,55.3,652.3L55.3,652.3z"/>
		</g>
	</g>
	<g>
		<g>
			<path d="M45.1,633.5c-5,0-9.9,0-14.9,0c-2.4,0-4.9,0-7.3,0c-1.2,0-2.4,0-3.7,0c-1.2,0-2.3,0.2-3.5,0.1c-0.3,0-0.5,0-0.8,0
				c-0.1,0-0.5-0.1,0,0c-0.1,0-0.2,0-0.3-0.1c-0.7-0.1-1.3-0.2-2-0.1c-0.6,0.1-1.3,0.2-1.9,0.3c-0.2,0-0.5,0.1-0.7,0.1
				s-0.4,0.2,0.1,0c-0.1,0-0.3,0-0.4,0c-1.9,0.2-3.7,0.3-5.3,1.4c-1.7,1.2-2.7,2.7-3.5,4.6c-0.7,1.7-1.1,3.8-0.9,5.6
				c0.5,4.8,4.2,9,8.9,10.3c1.3,0.4,2.8-0.4,3.1-1.7s-0.4-2.7-1.7-3.1c-0.2-0.1-0.4-0.1-0.6-0.2c-0.1,0-0.6-0.3-0.3-0.1
				s-0.2-0.1-0.3-0.2c-0.2-0.1-0.4-0.2-0.6-0.3c-0.2-0.1-0.3-0.2-0.4-0.3c-0.1,0-0.6-0.4-0.3-0.2c0.3,0.2-0.2-0.2-0.3-0.3
				c-0.2-0.2-0.4-0.3-0.5-0.5c-0.1-0.1-0.3-0.3-0.4-0.4c-0.1-0.1-0.5-0.6-0.3-0.3s-0.1-0.2-0.2-0.3c-0.1-0.2-0.3-0.4-0.4-0.6
				c-0.1-0.2-0.2-0.4-0.3-0.6c-0.2-0.4,0.1,0.4,0-0.1c-0.1-0.4-0.3-0.9-0.4-1.3c0-0.1,0-0.2,0-0.3c0,0.1,0,0.6,0,0.1
				c0-0.2,0-0.4,0-0.6c0-0.2,0-0.4,0-0.7c0-0.1,0-0.2,0-0.3c0-0.3,0,0,0,0.1c0.2-0.3,0.2-0.9,0.2-1.2c0.1-0.4,0.2-0.7,0.3-1.1
				l0.1-0.3c0,0-0.2,0.5-0.1,0.2c0.1-0.2,0.2-0.3,0.2-0.5c0.1-0.3,0.5-0.6,0.5-0.9c0,0-0.3,0.4-0.2,0.2c0,0,0.1-0.1,0.1-0.2
				c0.1-0.1,0.2-0.2,0.3-0.4c0.1-0.1,0.3-0.2,0.4-0.3c0,0-0.4,0.3-0.2,0.2c0.1,0,0.2-0.1,0.3-0.2c0.1-0.1,0.2-0.1,0.4-0.2
				c0.1,0,0.2-0.1,0.2-0.1s-0.5,0.2-0.3,0.1c0.3-0.1,0.6-0.2,1-0.3c0.5-0.1-0.4,0,0,0c0.2,0,0.3,0,0.5,0c0.6,0,1.1-0.1,1.6-0.1
				c0.5-0.1,1-0.2,1.6-0.2c0.1,0,0.3,0,0.4-0.1c0,0-0.4,0-0.2,0c0.3,0,0.5,0,0.8,0c0.1,0,0.7,0,0.3,0s0.1,0,0.2,0
				c0.3,0,0.5,0.1,0.8,0.1c0.5,0.1,1.1,0.1,1.6,0.1c1.1,0,2.2-0.1,3.3-0.2c1.1,0,2.3,0,3.4,0c2.3,0,4.5,0,6.8,0c5.2,0,10.3,0,15.5,0
				c1.3,0,2.6-1.2,2.5-2.5C47.5,634.7,46.5,633.5,45.1,633.5L45.1,633.5z"/>
		</g>
	</g>
	<g>
		<g>
			<path d="M352,497.6c0.4,3.6,0.9,7.2,1.4,10.8c0.2,1.2,0.3,2.5,0.5,3.7c0.1,0.6,0.2,1.1,0.2,1.7c0,0.1,0,0.2,0,0.3
				c0.1,0.4-0.1-0.7,0-0.2c0,0.3,0.1,0.6,0.1,0.8c0.7,5.5,1.2,11.1,1.7,16.6c0.8,9.1,1.6,18.2,2.6,27.3c1,9,2,17.9,3,26.9
				c1,9.1,2.1,18.2,3,27.3c0.1,1.2,0.2,2.3,0.4,3.5c0.1,1.3,1.1,2.6,2.5,2.5c1.2-0.1,2.6-1.1,2.5-2.5c-0.9-9.1-1.9-18.2-3-27.3
				c-1-9-2.1-17.9-3-26.9c-1-9.1-1.9-18.2-2.6-27.3c-0.5-6.1-1-12.3-1.8-18.4c-0.3-2.4-0.6-4.7-1-7.1c-0.1-0.6-0.2-1.3-0.3-1.9
				c0-0.3-0.1-0.7-0.1-1c0-0.2,0-0.3-0.1-0.5c-0.1-0.4,0,0.2,0,0.2c0-0.1,0-0.2,0-0.3c-0.2-1.7-0.4-3.4-0.7-5.1
				c-0.1-1-0.3-2-0.4-3.1c-0.2-1.3-1-2.6-2.5-2.5C353.2,495.2,351.8,496.2,352,497.6L352,497.6z"/>
		</g>
	</g>
	<g>
		<g>
			<path d="M288.7,341.9c-0.4,0.9-0.7,1.8-1.1,2.8c-0.1,0.2-0.2,0.4-0.2,0.6c0.3-0.6,0,0.1-0.1,0.2c-0.2,0.5-0.4,1-0.6,1.4
				c-0.8,1.8-1.6,3.6-2.6,5.4c-0.9,1.7-1.9,3.5-2.9,5.1c-0.5,0.9-1.1,1.7-1.7,2.5c-0.1,0.2-0.3,0.3-0.4,0.5
				c-0.1,0.1-0.1,0.2-0.2,0.3c0.4-0.4,0.1-0.2,0.1-0.1c-0.3,0.4-0.7,0.8-1,1.2c-1.3,1.5-2.7,3-4.3,4.3c-0.2,0.2-0.4,0.3-0.6,0.5
				c-0.1,0.1-0.2,0.2-0.3,0.2c0.1,0,0.4-0.3,0.1,0c-0.4,0.3-0.8,0.6-1.2,0.9c-0.9,0.6-1.7,1.1-2.6,1.6c-0.5,0.3-1,0.6-1.6,0.8
				c-0.3,0.1-0.5,0.3-0.8,0.4c-0.1,0.1-0.3,0.1-0.4,0.2c-0.1,0-0.6,0.3-0.3,0.1c0.3-0.1-0.2,0.1-0.2,0.1c-0.1,0.1-0.3,0.1-0.4,0.2
				c-0.2,0.1-0.5,0.2-0.7,0.3c-0.6,0.2-1.2,0.4-1.8,0.6c-2.4,0.8-4.8,1.4-7.3,1.9c-1.4,0.3-2.8,0.6-4.2,0.8
				c-0.7,0.1-1.4,0.2-2.1,0.3c0.4-0.1,0,0-0.1,0c-0.2,0-0.5,0.1-0.7,0.1c-0.3,0-0.6,0.1-1,0.1c-3,0.3-5.9,0.5-8.9,0.5
				c-1.3,0-2.6,1.1-2.5,2.5c0.1,1.3,1.1,2.5,2.5,2.5c5.5-0.1,11.1-0.6,16.5-1.7c5.1-1,10.2-2.4,15-4.7c8-3.8,13.8-10.7,17.9-18.4
				c2.2-4.2,4.1-8.5,5.8-12.9c0.5-1.2-0.5-2.8-1.7-3.1C290.3,339.8,289.2,340.6,288.7,341.9L288.7,341.9z"/>
		</g>
	</g>
	<g>
		<g>
			<path d="M158.9,389.1c-7.3,1.8-14.4,4.3-21.7,6.1c-1.8,0.4-3.5,0.8-5.3,1.1c-0.9,0.2-1.8,0.3-2.7,0.4c0.6-0.1-0.2,0-0.2,0
				c-0.1,0-0.3,0-0.4,0.1c-0.5,0.1-1,0.1-1.6,0.2c-1.8,0.2-3.6,0.2-5.4,0.2c-0.9,0-1.8-0.1-2.7-0.2c-0.5,0-0.9-0.1-1.4-0.1
				c-0.7-0.1,0.5,0.1-0.2,0c-0.2,0-0.5-0.1-0.7-0.1c-1.9-0.3-3.8-0.8-5.8-1.2c-1.9-0.3-3.8-0.7-5.7-1.1c-3.7-0.7-7.4-1.4-11.2-2.2
				c-7.5-1.5-14.9-3.2-22.2-5.1c-2.1-0.5-4.2-1-6.3-1.7c-0.4-0.1-0.7-0.3-1.1-0.4c-0.5-0.2,0.5,0.2,0,0c-0.2-0.1-0.4-0.2-0.6-0.3
				c-0.7-0.3-1.3-0.7-1.9-1.1c-0.3-0.2-0.7-0.4-1-0.7c-0.1-0.1-0.3-0.2-0.4-0.3c0.5,0.5-0.1-0.1-0.2-0.2c-0.6-0.5-1.2-1.1-1.8-1.7
				c-0.3-0.3-0.6-0.6-0.8-0.9c0.3,0.5,0,0-0.1-0.1c-0.2-0.2-0.3-0.4-0.5-0.7c-0.5-0.8-1-1.7-1.4-2.5c-0.6-1.2-2.3-1.6-3.4-0.9
				c-1.2,0.8-1.5,2.2-0.9,3.4c1.6,3.2,3.8,5.9,6.7,8c2.6,1.9,5.5,3,8.5,3.8c7.6,2,15.2,3.8,22.8,5.4c3.8,0.8,7.7,1.6,11.6,2.3
				c3.9,0.7,7.8,1.3,11.6,2.2c7.5,1.8,15.3,1.3,22.8-0.3c8.4-1.7,16.5-4.7,24.8-6.8c1.3-0.3,2.2-1.8,1.7-3.1
				C161.5,389.5,160.3,388.8,158.9,389.1L158.9,389.1z"/>
		</g>
	</g>
	<g>
		<g>
			<path d="M151.5,661.6c1.3,0,2.6-1.1,2.5-2.5s-1.1-2.5-2.5-2.5c-1.3,0-2.6,1.1-2.5,2.5S150.1,661.6,151.5,661.6L151.5,661.6z"/>
		</g>
	</g>
	<g>
		<g>
			<path d="M31.2,489.8c-2.1,0.9-4.2,1.9-6.2,2.8c-0.2,0.1-0.3,0.3-0.5,0.4c-0.2,0.2-0.4,0.5-0.5,0.8c-0.2,0.5-0.3,1.1-0.1,1.6
				c0.1,0.4,0.3,0.8,0.5,1.1c0.2,0.3,0.4,0.5,0.6,0.8c-0.1-0.2-0.3-0.3-0.4-0.5c0.1,0.1,0.2,0.2,0.2,0.3c0.4,0.5,0.8,1,1.5,1.1
				c0.6,0.2,1.4,0.1,1.9-0.3c0.5-0.3,1-0.9,1.1-1.5s0.1-1.4-0.3-1.9c-0.2-0.3-0.5-0.7-0.8-1c0.1,0.2,0.3,0.3,0.4,0.5
				c-0.1-0.1-0.2-0.3-0.2-0.4c0.1,0.2,0.2,0.4,0.3,0.6c0-0.1-0.1-0.1-0.1-0.2c-0.4,0.9-0.8,1.9-1.1,2.8c2.1-0.9,4.2-1.9,6.2-2.8
				c0.5-0.2,1-0.9,1.1-1.5c0.2-0.6,0.1-1.4-0.3-1.9c-0.3-0.5-0.9-1-1.5-1.1c-0.2,0-0.4-0.1-0.7-0.1C32,489.4,31.6,489.5,31.2,489.8
				L31.2,489.8z"/>
		</g>
	</g>
	<g>
		<g>
			<path d="M26.3,453.6c0,1-0.5,1.9-1,2.8c-0.6,1.3-1.3,2.5-2,3.7c-1.3,2.4-2.7,4.9-3.8,7.4c-1,2.3-1.7,4.7-2.3,7.1
				c-0.3,1.2-0.4,2.4-0.5,3.7c-0.1,1.4-0.5,2.8-0.6,4.2c-0.1,3.9,5.9,3.9,6,0c0-1.3,0.4-2.5,0.5-3.8c0.1-1.2,0.1-1.9,0.5-3.1
				c0.6-2.3,1.3-4.5,2.3-6.6c1.3-2.4,2.6-4.9,3.8-7.3c1.4-2.6,2.9-5.1,3-8.1C32.4,449.8,26.4,449.8,26.3,453.6L26.3,453.6z"/>
		</g>
	</g>
	<g>
		<g>
			<path d="M436,443.5c1.2,2,2.5,4,3.7,6.1c1.1,1.8,2.1,3.7,2.5,5.8c0.2,0.8,1.1,1.3,1.8,1c0.8-0.2,1.2-1.1,1-1.8
				c-0.5-2.3-1.6-4.3-2.7-6.3c-1.2-2.1-2.5-4.2-3.8-6.2C437.6,440.4,435,441.9,436,443.5L436,443.5z"/>
		</g>
	</g>
</g>
<g id="extra" class="st0">
	<g id="NEW_DESIGNS" class="st6">
	</g>
	<g id="UP_NOW" class="st6">
	</g>
	<g id="Paragraph_1_" class="st6">
	</g>
	<g id="LEARN_MORE" class="st6">
	</g>
	<g id="Nav_1_" class="st6">
	</g>
	<g id="Place_Your_Logo_Here__x28_Double_Click_to_Edit_x29__xA0_Image_1_" class="st6">
	</g>
</g>
</svg>
